<svg xmlns="http://www.w3.org/2000/svg" xmlns:xlink="http://www.w3.org/1999/xlink" version="1.1" x="0px" y="0px" viewBox="0 0 100 100" enable-background="new 0 0 100 100" xml:space="preserve"><g><path fill="#000000" d="M91.039,30.504c-0.283-0.575-0.575-1.144-0.879-1.707C82.145,14.03,66.736,4.856,49.95,4.856   c-5.523,0-10.931,0.978-16.073,2.906l-0.268,0.103l0,0c-0.547,0.209-1.103,0.435-1.651,0.673   c-9.069,3.878-16.774,10.744-21.695,19.33c-3.943,6.877-6.028,14.729-6.028,22.708c0,8.36,2.273,16.533,6.571,23.628l0.18,0.3   c0.984,1.601,2.098,3.178,3.311,4.688c1.918,2.39,4.089,4.597,6.451,6.559c8.178,6.801,18.549,10.546,29.203,10.546   c12.708,0,24.514-5.091,33.241-14.335c1.657-1.751,3.192-3.657,4.564-5.666l0.101-0.146c5.112-7.564,7.814-16.407,7.814-25.575   C95.67,43.537,94.112,36.784,91.039,30.504z M11.343,67.908c0.174,0.895,0.34,1.765,0.381,2.642   c-3.209-6.132-4.897-12.981-4.897-19.973c0-7.526,1.965-14.933,5.684-21.418c0.048-0.084,0.101-0.166,0.15-0.249   c3.589-0.84,6.343-2.394,10.635-4.82c2.342-1.323,5.257-2.97,9.023-4.893C36.625,17,41.111,15.84,45.295,15.84   c5.222,0,9.71,1.749,12.98,5.057c3.685,3.729,5.59,9.274,5.511,16.038c-0.086,7.053-2.226,8.432-5.893,8.433   c-0.001,0-0.001,0-0.002,0c-1.618,0-3.522-0.288-5.728-0.619c-2.881-0.435-6.146-0.926-9.782-0.926   c-6.86,0-13.062,1.832-18.959,5.601C9.479,58.332,10.47,63.42,11.343,67.908z M13.202,73.162l-0.175-0.293   c-0.058-0.094-0.11-0.191-0.167-0.286c0.36-1.749,0.06-3.358-0.245-4.922c-0.833-4.283-1.695-8.711,11.506-17.146   c5.683-3.632,11.656-5.397,18.261-5.397c3.538,0,6.752,0.484,9.588,0.912c2.257,0.34,4.205,0.634,5.921,0.634   c0.001,0,0.002,0,0.002,0c5.022,0,7.105-2.815,7.188-9.714c0.085-7.118-1.95-12.984-5.885-16.965   c-3.519-3.56-8.325-5.442-13.902-5.442c-4.388,0-9.079,1.21-13.565,3.499c-3.791,1.935-6.719,3.59-9.072,4.919   c-3.651,2.063-6.161,3.478-9.011,4.34c4.65-7.231,11.44-13.004,19.335-16.381c0.602-0.261,1.206-0.505,1.795-0.724l0.262-0.1   c0.684-0.251,1.374-0.48,2.066-0.696c3.078-0.098,8.443,0.074,17.798,1.028c16.05,1.636,17.624,9.703,19.445,19.044   c0.756,3.878,1.539,7.889,3.404,11.682c2.945,5.987,3.434,10.551,1.373,12.852c-2.066,2.308-6.699,2.312-13.044,0.015   c-13.657-4.943-38.023,1.422-46.242,9.783c-4.808,4.892-4.378,7.643-4.033,9.853c0.167,1.07,0.306,1.977-0.172,3.038   C14.753,75.538,13.935,74.353,13.202,73.162z M16.515,77.803c0.989-1.66,0.781-3.023,0.574-4.348   c-0.332-2.122-0.674-4.316,3.677-8.743c7.969-8.108,31.613-14.276,44.875-9.473c6.978,2.525,11.973,2.397,14.452-0.369   c2.473-2.761,2.066-7.702-1.175-14.289c-1.791-3.638-2.556-7.562-3.296-11.358c-1.841-9.438-3.579-18.352-20.586-20.085   c-5.128-0.523-9.411-0.852-12.848-0.989c2.548-0.464,5.141-0.7,7.762-0.7c15.835,0,30.37,8.654,37.93,22.582   c0.26,0.482,0.51,0.972,0.753,1.464c-0.664,0.678-1.587,1.496-2.771,2.451c-4.146,3.337-2.638,7.91-1.042,12.75   c1.43,4.336,3.05,9.251,0.858,14.076c-2.484,5.469-5.515,4.738-12.153,3.139c-5.085-1.224-12.046-2.899-21.931-2.427   c-22.115,1.064-25.683,9.518-26.243,18.494c-0.231,3.689-0.913,4.774-1.276,5.094c-0.566-0.425-1.126-0.861-1.672-1.314   C20.253,81.972,18.276,79.967,16.515,77.803z M81.306,80.183c-8.232,8.72-19.368,13.522-31.356,13.522   c-4.942,0-9.819-0.858-14.418-2.491l0.057-0.029c-0.038-0.073-3.763-7.298-1.102-12.681c1.442-2.918,4.531-4.801,9.179-5.598   c16.428-2.812,18.078-2.305,28.8,1.005l1.021,0.314c5.568,1.715,8.906,2.25,10.909,2.291C83.43,77.797,82.398,79.027,81.306,80.183   z M85.8,74.562l-0.097,0.142c-0.113,0.166-0.234,0.327-0.35,0.492c-1.382,0.122-4.564-0.078-11.485-2.21l-1.02-0.313   c-10.982-3.389-12.67-3.91-29.401-1.043c-5.08,0.87-8.486,2.989-10.123,6.301c-2.294,4.641-0.447,10.248,0.566,12.664   c-3.083-1.237-6.024-2.829-8.757-4.753c0.83-0.937,1.328-2.841,1.512-5.781c0.352-5.636,1.007-16.125,25.011-17.279   c9.7-0.469,16.556,1.186,21.564,2.392c6.681,1.608,10.711,2.58,13.638-3.862c2.402-5.286,0.697-10.457-0.807-15.019   c-1.577-4.783-2.822-8.56,0.624-11.335c1.039-0.838,1.876-1.568,2.537-2.208c2.554,5.607,3.864,11.595,3.864,17.829   C93.077,59.168,90.562,67.458,85.8,74.562z"></path><path fill="#000000" d="M58.104,76.491c-2.691,0-9.261,0.276-12.13,2.839c-0.643,0.574-1.232,1.085-1.767,1.546   c-3.431,2.97-4.997,4.324-2.598,7.637c1.141,1.575,2.275,2.218,3.914,2.218h0c1.029,0,2.25-0.254,3.796-0.576   c1.216-0.254,2.594-0.541,4.303-0.805c5.861-0.903,17.468-4.385,18.759-7.816c0.258-0.688,0.139-1.355-0.347-1.933   C70.319,77.559,63.728,76.491,58.104,76.491z M71.167,81.076c-0.874,2.327-10.737,5.912-17.742,6.992   c-1.742,0.269-3.2,0.572-4.37,0.817c-1.473,0.306-2.636,0.549-3.532,0.549h0c-1.042,0-1.845-0.275-2.864-1.683   c-1.654-2.284-1.118-2.854,2.396-5.895c0.539-0.467,1.134-0.981,1.781-1.56c1.76-1.572,5.972-2.511,11.267-2.511   c5.908,0,11.712,1.188,12.938,2.648C71.222,80.649,71.258,80.835,71.167,81.076z"></path><path fill="#000000" d="M53.437,81.4c-0.525,0-1.028,0.042-1.454,0.12c-1.614,0.299-4.183,2.059-4.067,3.502   c0.037,0.455,0.348,1.226,2.021,1.264c0.179,0.004,0.356,0.006,0.529,0.006c0,0,0,0,0,0c3.35,0,5.702-0.75,6.804-2.168   c0.46-0.593,0.321-1.107,0.197-1.36C56.832,81.466,53.998,81.4,53.437,81.4z M56.246,83.329c-0.882,1.136-3.142,1.727-6.28,1.66   c-0.462-0.01-0.67-0.082-0.75-0.121c0.129-0.499,1.703-1.832,3.001-2.072c0.351-0.064,0.771-0.099,1.219-0.099   c1.536,0,2.604,0.368,2.834,0.598C56.265,83.305,56.256,83.315,56.246,83.329z"></path><path fill="#000000" d="M25.548,44.366c3.283-1.674,6.677-3.404,9.788-3.806l0.45-0.058c7.717-0.994,17.321-2.23,18.835-7.394   c1.584-5.404-0.346-7.066-8.632-11.294c-1.461-0.746-3.188-1.124-5.136-1.124c-8.726,0-19.48,7.405-21.675,9.238   c-1.517,1.267-1.517,1.267-1.679,1.413c-0.16,0.143-0.479,0.43-2.613,2.25c-2.453,2.095-3.778,5.085-3.543,8   c0.188,2.332,1.344,4.257,3.258,5.42c0.626,0.381,1.372,0.574,2.217,0.574C19.231,47.586,22.3,46.022,25.548,44.366z    M12.633,41.488c-0.201-2.501,0.956-5.084,3.093-6.91c2.153-1.838,2.476-2.127,2.637-2.272c0.159-0.142,0.159-0.142,1.645-1.382   c2.857-2.387,13.104-8.937,20.844-8.937c1.741,0,3.271,0.33,4.546,0.981c8.287,4.229,9.255,5.417,7.978,9.775   c-1.275,4.351-10.801,5.577-17.756,6.473l-0.45,0.058c-3.333,0.43-6.83,2.212-10.21,3.936c-3.105,1.583-6.039,3.079-8.143,3.079   c-0.613,0-1.118-0.126-1.544-0.385C13.723,44.964,12.786,43.395,12.633,41.488z"></path><path fill="#000000" d="M28.968,37.836c1.015,0,2.292-0.269,3.644-0.554c0.888-0.187,1.806-0.38,2.735-0.52   c4.67-0.701,7.243-1.639,8.349-4.822c0.249-0.717,0.471-1.631-0.032-2.338c-0.569-0.8-1.741-0.951-3.705-0.951   c-0.694,0-1.501,0.02-2.427,0.043l-2.087,0.047c-4.937,0.096-7.656,0.148-8.89,5.19c-0.35,1.43-0.27,2.406,0.254,3.074   C27.248,37.564,27.954,37.836,28.968,37.836z M27.814,34.24c0.998-4.073,2.675-4.105,7.656-4.202l2.095-0.047   c0.913-0.023,1.709-0.043,2.394-0.043c0.646,0,2.359,0,2.648,0.406c0.067,0.094,0.138,0.37-0.137,1.161   c-0.805,2.318-2.514,3.245-7.316,3.966c-0.967,0.145-1.904,0.342-2.81,0.533c-1.284,0.271-2.497,0.526-3.376,0.526   c-0.589,0-0.961-0.11-1.138-0.334C27.657,35.985,27.514,35.466,27.814,34.24z"></path></g></svg>