<?xml version="1.0" encoding="utf-8"?>
<!-- Generator: Adobe Illustrator 21.0.2, SVG Export Plug-In . SVG Version: 6.00 Build 0)  -->
<svg version="1.1" id="Calque_1" xmlns="http://www.w3.org/2000/svg" xmlns:xlink="http://www.w3.org/1999/xlink" x="0px" y="0px"
	 viewBox="0 0 100 125" style="enable-background:new 0 0 100 125;" xml:space="preserve">
<path d="M94.6,75c-0.4-5.1-5.4-10.7-7.4-12.9c1.3-3.8,2.1-7.9,2.1-12.2C89.3,29,72.3,12,51.5,12c-10.2,0-19.4,4-26.2,10.6
	c-7.8-2.7-13.7-2.2-13.9-2.2c-3.4,0.2-5,1.7-5.7,3c-2,3.7,1,9.1,1.3,9.7c1.9,3.2,4.5,6.4,7.3,9.4c-0.5,2.4-0.7,4.8-0.7,7.4
	c0,20.9,17,37.8,37.8,37.8c8.7,0,16.7-3,23.1-8c5.8,1.8,9.1,2,9.3,2.1c0.7,0.1,1.4,0.1,2,0.1c3.3,0,5.8-0.8,7.2-2.5
	C95,77.4,94.7,75,94.6,75z M73.8,75.5c-7.4-2.4-18.6-7.2-32.7-16.6c-0.2-0.1-12.9-7.9-22.7-17.6c1.1-4.2,2.9-8.1,5.4-11.5
	c4.9,7.5,23.8,32.4,59.2,32.7C81,67.6,77.8,72,73.8,75.5z M38.3,18.4c4.3,5.3,21.7,24.5,46.9,26.5c0.2,1.6,0.4,3.2,0.4,4.9
	c0,3.8-0.7,7.5-1.8,10.9c-36-0.1-54.7-26.1-58.7-32.4C28.6,24,33.1,20.6,38.3,18.4z M47.4,16c4.2,4.1,19.1,17.6,35.5,20.6
	c0.9,2.1,1.5,4.2,2,6.4c-23.6-2.1-40-19.6-44.7-25.3C42.4,16.9,44.9,16.3,47.4,16z M81.9,34.5c-13.9-3-26.8-13.9-32-18.7
	c0.5,0,1.1-0.1,1.6-0.1C64.8,15.7,76.3,23.4,81.9,34.5z M10.3,31.2c-0.8-1.3-2.1-4.6-1.3-6c0.3-0.6,1.2-1,2.7-1
	c0.1,0,4.6-0.4,10.8,1.4c-3.1,3.7-5.5,7.9-7,12.6C13.5,35.9,11.7,33.6,10.3,31.2z M18,56.1c5.6,8.7,18.4,24.1,40.3,27.1
	c-2.2,0.4-4.5,0.7-6.8,0.7C34.8,83.9,21,71.9,18,56.1z M63.1,81.8c-27.7-1.4-41.8-23.2-45.7-30.2c0-0.6-0.1-1.2-0.1-1.8
	c0-1.4,0.1-2.8,0.3-4.1c9.7,9.1,20.9,16,21.5,16.4c13,8.6,23.5,13.4,31.1,16.2C68,79.7,65.7,80.9,63.1,81.8z M90.4,76.9
	c-0.5,0.6-2.1,1.5-6.2,1.2c-0.1,0-2.3-0.2-6.2-1.3c3.2-3.1,5.8-6.8,7.7-10.9c2.2,2.5,5,6.4,5.3,9.5C90.9,75.4,91,76.2,90.4,76.9z"/>
</svg>
