<?xml version="1.0" encoding="utf-8"?>
<!-- Generator: Adobe Illustrator 21.0.2, SVG Export Plug-In . SVG Version: 6.00 Build 0)  -->
<svg version="1.1" id="Calque_1" xmlns="http://www.w3.org/2000/svg" xmlns:xlink="http://www.w3.org/1999/xlink" x="0px" y="0px"
	 viewBox="0 0 6.8 8.5" style="enable-background:new 0 0 6.8 8.5;" xml:space="preserve">
<style type="text/css">
	.st0{fill:none;}
</style>
<g>
	<g>
		<path d="M4.6,3.2C4.5,2.8,4.3,2.6,4,2.4C3.8,2.4,3.6,2.3,3.4,2.3c-0.2,0-0.4,0-0.5,0.1C2.6,2.6,2.3,2.8,2.3,3.2
			C2.5,3.4,3,3.5,3.4,3.5C3.8,3.5,4.3,3.4,4.6,3.2L4.6,3.2z M4,2.3c0.4,0.2,0.7,0.5,0.7,0.9l0,0l0,0C4.4,3.5,3.9,3.6,3.4,3.6
			c-0.5,0-1-0.1-1.3-0.4l0,0l0,0c0-0.5,0.3-0.8,0.7-0.9C3,2.2,3.2,2.2,3.4,2.2C3.6,2.2,3.8,2.2,4,2.3z"/>
		<path d="M2.1,3.2C2,3.3,1.8,3.3,1.6,3.4C1.4,3.4,1.2,3.6,1,3.7c0.1,0.1,0.4,0.5,2.4,0.5c2,0,2.3-0.4,2.4-0.5
			C5.7,3.6,5.4,3.4,5.2,3.4C5,3.3,4.9,3.3,4.7,3.2l0,0l0,0C4.4,3.5,3.9,3.6,3.4,3.6C2.9,3.6,2.4,3.5,2.1,3.2L2.1,3.2
			C2.1,3.3,2.1,3.2,2.1,3.2z M1.6,3.2c0.3-0.1,0.5-0.1,0.6-0.1l0.1,0l0,0.1c0,0,0,0,0,0C2.5,3.4,3,3.5,3.4,3.5
			c0.4,0,0.9-0.1,1.1-0.3c0,0,0,0,0,0l0-0.1l0.1,0c0.1,0,0.4,0,0.6,0.1C5.5,3.3,5.8,3.4,6,3.7l0,0l0,0c0,0-0.1,0.6-2.6,0.6
			C1,4.4,0.9,3.8,0.9,3.8l0,0l0,0C1,3.4,1.3,3.3,1.6,3.2z"/>
		<path d="M4.3,4.2C4.3,4.3,4.3,4.3,4.3,4.2C4.3,4.3,4.3,4.3,4.3,4.2c0,0.2-0.1,0.3-0.3,0.3C3.9,4.6,3.6,4.7,3.4,4.7S3,4.6,2.8,4.6
			C2.6,4.5,2.5,4.4,2.5,4.3c0,0,0,0,0,0c0,0,0,0,0,0l0-0.1l0.1,0c0.1,0,0.2,0,0.4,0c0.1,0,0.3,0,0.4,0c0.2,0,0.3,0,0.4,0
			C4,4.2,4.1,4.2,4.3,4.2L4.3,4.2C4.3,4.2,4.3,4.2,4.3,4.2z M4,4.4c0.1,0,0.1,0,0.1-0.1c-0.1,0-0.2,0-0.2,0c-0.1,0-0.3,0-0.4,0
			c-0.2,0-0.3,0-0.4,0c-0.1,0-0.2,0-0.2,0c0,0,0.1,0,0.1,0.1C3,4.5,3.2,4.5,3.4,4.5C3.6,4.5,3.8,4.5,4,4.4z"/>
		<path d="M2.9,2.7C2.9,2.7,2.9,2.6,2.9,2.7c-0.1-0.1-0.2,0-0.2,0v0.4c0,0,0,0.1,0.1,0.1c0,0,0.1,0,0.1-0.1V2.7z"/>
		<path d="M3.5,2.5C3.5,2.5,3.5,2.4,3.5,2.5c-0.1-0.1-0.2,0-0.2,0v0.8c0,0,0,0.1,0.1,0.1s0.1,0,0.1-0.1V2.5z"/>
		<path d="M4.1,2.7C4.1,2.7,4,2.6,4.1,2.7c-0.1-0.1-0.2,0-0.2,0v0.4c0,0,0,0.1,0.1,0.1c0,0,0.1,0,0.1-0.1V2.7z"/>
		<path d="M1.3,3.6C1.3,3.6,1.2,3.7,1.3,3.6c-0.1,0.1,0,0.2,0,0.2h0.1c0,0,0.1,0,0.1-0.1s0-0.1-0.1-0.1H1.3z"/>
		<path d="M1.7,3.6C1.6,3.6,1.6,3.7,1.7,3.6c-0.1,0.1,0,0.2,0,0.2h0.1c0,0,0.1,0,0.1-0.1s0-0.1-0.1-0.1H1.7z"/>
		<path d="M5,3.6C5,3.6,4.9,3.7,5,3.6C4.9,3.8,5,3.8,5,3.8h0.1c0,0,0.1,0,0.1-0.1s0-0.1-0.1-0.1H5z"/>
		<path d="M5.4,3.6C5.4,3.6,5.3,3.7,5.4,3.6c-0.1,0.1,0,0.2,0,0.2h0.1c0,0,0.1,0,0.1-0.1s0-0.1-0.1-0.1H5.4z"/>
	</g>
</g>
<rect class="st0" width="6.8" height="6.8"/>
</svg>
