<?xml version="1.0" encoding="utf-8"?>
<!-- Generator: Adobe Illustrator 21.0.2, SVG Export Plug-In . SVG Version: 6.00 Build 0)  -->
<svg version="1.1" id="Calque_1" xmlns="http://www.w3.org/2000/svg" xmlns:xlink="http://www.w3.org/1999/xlink" x="0px" y="0px"
	 viewBox="0 0 100 125" style="enable-background:new 0 0 100 125;" xml:space="preserve">
<style type="text/css">
	.st0{fill:none;}
</style>
<g>
	<path class="st0" d="M83.9,71.6c-0.5,0-1.2-0.3-1.7-0.4c-0.3,0-0.8,0.1-1,0c-0.3-0.1-0.3-0.7-0.6-0.9c-0.2-0.1-0.6-0.2-0.9-0.3
		c-0.5-0.2-0.9-0.4-1.4-0.4c-0.2,0-0.4,0.1-0.6,0c-0.3,0-0.5-0.4-0.8-0.6c-0.4-0.2-0.7-0.3-0.8-0.6c0.3-1-0.6-1.3-0.8-1.9
		c-0.1-0.3-0.1-0.6-0.1-0.9c-0.1-0.4-0.5-0.6-0.9-0.9c-0.7-0.5-1.3-1-2.3-1.2c-0.4-0.1-0.9,0.1-1.4,0.1c-0.6,0-1.3-0.5-1.7-1
		c-0.4-0.5-0.6-0.9-1-1.1c-0.3-0.2-0.8-0.2-1-0.4c-0.1-0.1-0.1-0.3-0.2-0.5c-0.2-0.3-0.5-0.5-0.2-1c-0.4-0.2-0.4,0.4-0.8,0.3
		c-0.4-0.5-0.7-0.8-1.5-0.6c-0.4,0.1-0.6,0.6-1.1,0.6c-0.4,0-0.7-0.4-1.2-0.5c-0.4,0-0.8,0.1-1.1,0.1c-0.4-0.1-0.5-0.4-0.9-0.7
		c-0.3-0.2-0.8-0.5-1-0.5c-0.5,0-0.8,1-1.5,0.7c-0.3-0.4,0.5-0.6,0.1-1c-0.3-0.3-0.5,0.1-0.8,0.3c-0.3,0.2-0.5,0.4-0.8,0.5
		c-0.7,0.2-1.1,0.1-1.6,0.4c-0.5,0.2-0.5,0.7-0.8,1.2c-0.1,0.2-0.4,0.5-0.6,0.8c-0.2,0.1-0.3,0.2-0.5,0.3c-0.4,0-0.8-0.6-1.2-0.7
		c-1.1-0.5-1.6,0.4-2.6,0.4c-0.9,0-2.1-1.4-2-2.2c0-0.5,0.3-1.2,0.3-1.8c0.1-0.5,0.4-0.8,0.4-1.2c0-0.6-0.8-1-1.2-1.1
		c-0.9-0.2-2.2,0.4-3.2-0.1c-0.2-0.3,0.2-0.5,0.3-0.9c0.1-0.2,0-0.4,0.1-0.6c0.1-0.3,0.4-0.5,0.6-0.9c0.1-0.2,0.1-0.6,0.2-0.9
		c0.1-0.4,0.4-0.6,0.4-0.8c0-0.3-0.1-0.7-0.3-0.9c-0.8,0-1.3,0.1-1.8,0.3c-1,0.5-0.8,1.9-1.9,2.2c-0.4,0.1-0.9,0.1-1.3,0.2
		c-0.3,0.1-0.8,0.3-1.1,0.2c-0.4,0-1.2-0.4-1.4-0.7c-0.2-0.2-0.8-1.4-0.8-1.6c-0.4-1.4,0-2.7,0.6-3.7c0.1-0.2,0.3-0.4,0.4-0.6
		c0.1-0.3,0-0.8,0.1-1.2c0.2-0.7,1.1-1.1,1.7-1.4c0.7-0.4,1.3-1,2.1-1c0.4,0,1,0.1,1.4,0.2c0.4,0.1,0.6,0.3,1,0.3
		c0.9,0.1,1.1-0.6,1.8-1c0.7,0.1,1.3-0.1,1.9,0c0.5,0,0.8,0.5,1.2,0.6c0.3,0,0.6-0.3,0.9-0.2c0.3,0,0.8,0.7,0.8,1
		c0.1,0.4-0.3,0.8-0.2,1.3c0.5,0.5,1.3,0.6,1.9,0.8c0.4-0.3,0.1-1,0-1.5c0-0.2,0-0.4,0-0.6c0-0.3-0.2-0.7-0.2-1c0-1,0.6-1.7,1.3-2.1
		c0.2-0.2,0.5-0.3,0.7-0.4c0.4-0.2,0.7-0.6,1.1-0.8c0.5-0.2,0.8-0.3,1.3-0.5c0.7-0.4,1.4-0.7,1.9-1.2c0.3-0.6,0-1.5,0-2.1
		c0.3-0.2,0.5,0.1,0.8,0.1c0.4-0.1,0.5-0.7,0.7-1c0.1-0.1,0.5-0.2,0.7-0.4c0.4-0.3,0.6-0.9,1-1c0.1-0.1,0.5,0,0.7-0.1
		c0.3-0.1,0.7-0.4,1.2-0.6c0.3-0.1,1-0.1,1.1-0.2c0.1-0.1,0-0.6,0.1-0.8c0.2-1.1,1.9-1.3,2.9-1.7c0.7-0.3,1.4-0.7,2.1-0.6
		c-0.1,0.5-0.8,0.3-0.7,1c0.2,0.9,1.3-0.3,1.6-0.4c0.6-0.2,1.6-0.4,2.4-0.7c0.7-0.2,1.9-0.6,1.3-1.4c-0.5,0-0.8,0.6-1.3,0.8
		c-0.3,0-0.3-0.3-0.5-0.3c-0.3,0-0.4,0.2-0.7,0.2c-0.3,0-0.6-0.5-0.7-0.8c-0.1-0.8,0.7-1.1,1-1.7c-0.2-0.7-1.2-0.1-1.8-0.4
		c0.1-0.4,0.5-0.7,1-0.8c0.4-0.1,1.3,0,1.6,0.2c0.1,0.1,0,0.4,0.2,0.6c0.2,0.2,0.5,0.2,0.9,0.1c0.1-0.5-0.7-0.4-0.6-0.8
		c0.7-0.4,1.7-0.1,2.5-0.2c0.5-0.1,0.9-0.4,1.4-0.6c0.4-0.2,0.9-0.6,1.3-0.2c0.1,0.4-0.4,0.5-0.6,0.7c-0.7,0.7-1.5,1.4-2.1,2.2
		c0.4,0.3,1,0.2,1.6,0.2c0.2,0,0.5,0.1,0.8,0.1c0.3,0,0.6,0,0.8,0.1c0.4,0.1,0.5,0.5,0.9,0.5c0.7,0,0.7-0.7,0.3-1.2
		c0.1-0.4,0.3-0.7,0.1-1c-0.3-0.6-1.4,0-1.4-0.8c0-0.5,0.4-0.5,0.6-0.8c-0.1-0.9,0.8-1,0.7-1.8c0-0.3-0.3-0.3-0.6-0.7
		c-0.1-0.2-0.2-0.5-0.3-0.6c-0.5-0.4-1.5-0.3-1.6-1.2c0-0.5,0.1-0.9,0.1-1.4c0-0.1,0-0.3-0.1-0.5c-0.5-0.4-0.9-0.8-1.3-1.1
		c-0.3,0.3-0.5,0.7-0.9,0.8c-0.3,0.2-0.6,0.4-1,0.3c-0.2,0-0.2-0.4-0.2-0.8v0c0-0.5-0.2-0.5-0.1-1c-0.1-0.3-0.9-0.2-1.2-0.5
		c-0.4-0.3-0.6-0.9-1.1-0.9c-0.2,0-0.5,0.2-0.8,0.2c-0.5,0-0.9-0.2-1.3-0.3c-0.2-0.1-0.4-0.1-0.6-0.1c0,0,0,0-0.1,0
		c-0.3,0.1-0.5,0.5-0.7,0.8c-0.1,0.2-0.3,0.4-0.5,0.5c0.1,0.5-0.6,0.8-0.6,1.2c0,0.3,0.1,0.5,0.1,0.8c0.2,2.3-1.8,3.4-4,3.3
		c-0.4,0.4-0.3,1.2-0.6,1.8c-0.2,0.5-0.9,1-1.4,1c-0.4,0-0.8-0.5-0.8-0.9c0-0.4,0.6-0.6,0.2-1.1c0-0.3,0.8-0.5,0.7-1
		c-0.1-0.5-0.8-0.3-1.5-0.3c-0.5-0.1-1.1-0.3-1.5-0.6c-0.6-0.3-1-0.9-1.8-1c-0.4-0.1-0.8,0.1-1-0.1c-0.2-0.3,0.1-0.6,0.1-0.8
		c0-0.3-0.6-0.4-0.6-0.7c0-0.2,0.5-0.8,0.7-1c0.4-0.3,1.1-0.7,1.7-1c0.6-0.3,1.3-0.7,1.9-0.9c0.2-0.1,0.5-0.1,0.8-0.1
		c0.6-0.2,1-0.7,1.6-0.8c0.3-0.1,0.6-0.1,1-0.1c0.4-0.1,0.7-0.3,1-0.4c0.2-0.1,0.5-0.3,0.7-0.3c0.1-0.1,0.3-0.1,0.4-0.1
		c-0.1,0.6-0.8,0.6-0.9,1.2c0.6,1.1,1.6-0.3,2.3-0.2c0.6,0,1.3,0.9,1.6,0c-0.1-0.4-0.6-0.7-1-1c-0.4-0.2-1-0.4-0.9-1
		c0.4-0.2,0.6,0.3,1,0.3c0.2,0,0.3-0.1,0.5-0.2c-0.9-0.4-1.9-0.8-2.8-1.1c-0.7-0.2-1.3-0.5-2-0.7c-0.1,0-0.2-0.1-0.4-0.1
		c-0.3,0.3-1.1,0.7-1.4,0.5c0-0.4,0.5-0.4,0.6-0.7c-0.5-0.1-0.9-0.3-1.4-0.4c-0.2,0.1-0.3,0.2-0.4,0.3c-0.2,0.2-0.2,0.6-0.5,0.8
		c-0.4,0.3-1,0.1-1.5,0.1c-1,0-1.5,0.1-2.2-0.3c-0.2-0.1-0.6-0.3-0.6-0.6c0.8,0,1.5,0.4,2.4,0.2c0.3-0.1,0.4-0.3,0.7-0.5
		c0.3-0.1,0.7,0,0.8-0.3c-1.8-0.4-3.5-0.6-5.4-0.7c-1-0.1-2.1-0.1-3.1-0.1c-0.3,0-0.7,0-1,0c-0.1,0.3-0.3,0.6-0.4,0.8
		c-0.2,0.3-0.1,0.5-0.3,0.6c-0.7,0.5-1.9-0.4-2.8-0.5c-0.5-0.1-0.9,0.1-1.4,0.1c-0.5,0-0.9-0.2-1.3,0c-0.2-0.1-0.3-0.2-0.4-0.4
		c-7.1,1.3-13.5,4.3-18.9,8.6c0.3,0.4,0.5,0.8,0.6,1c0.1,0.1-0.3,0.5-0.3,0.7c0,0.2,0.1,0.4,0.1,0.6c0,0.5-0.4,0.8-0.1,1.1
		c0.4,0.3,0.9-0.4,1.3,0c0.3,0.5-0.3,0.6-0.4,1.1c-0.1,0.5,0.2,1,0.1,1.5c0,0.2-0.1,0.7-0.1,0.9c-0.1,0.3-0.6,0.3-0.7,0.7
		c-0.1,0.6,0.8,0.9,0.9,1.4c0,0.3-0.3,0.9-0.4,1.2c-0.3,0.8-0.8,1.4-1.4,2.1c-0.5,0.6-1.3,1.2-1.6,1.8c-0.2,0.3-0.2,0.7-0.4,1.1
		c-0.2,0.5-0.7,0.7-0.9,1.2c-0.1,0.7,0,1.3,0,1.9c0,0.6,0,1.3,0,1.8c0,0.3,0.2,1,0.3,1.3c0.2,0.3,0.5,0.2,1,0.5
		c0.3,0.2,0.8,0.6,0.9,1c0.1,0.4,0.1,0.9,0.1,1.4c0,0.5,0.1,1.1,0.2,1.5c0.1,0.4,0.8,0.8,0.8,1.2c0,0.4-0.6,0.5-0.6,0.9
		c0,0.7,1.4,0.7,1.6,1.4c0.1,0.3-0.2,0.7-0.1,1c0.1,0.3,0.7,0.6,0.8,0.8c0.3,0.3,0.5,0.7,0.9,0.6c0.3-0.4-0.3-0.8-0.4-1.2
		c-0.2-0.4-0.2-1.1-0.4-1.8c-0.1-0.4-0.5-0.7-0.6-1.1c-0.1-0.4-0.1-0.8-0.2-1.1c-0.1-0.3-0.6-0.7-0.6-1.1c-0.2-1.2,1.1-1.5,1.4-0.7
		c0.2,0.5-0.1,1,0,1.5c0.1,0.4,0.6,0.9,0.9,1.3c0.3,0.4,0.6,0.9,0.9,1.2c0,0.3,0,0.4,0,0.7c0.4,0.5,0.9,0.9,1.3,1.4
		c0.5,0.7,1.4,1.5,1.3,2.7c0,0.4-0.4,0.7-0.4,1.1c0,0.3,0.4,0.7,0.8,1c0.4,0.3,0.7,0.6,1,0.7c0.2,0.1,0.6,0.1,0.9,0.2
		c0.3,0.2,0.6,0.5,1,0.7c0.5,0.3,1.2,0.4,1.7,0.7c0.6,0.3,1.3,0.6,1.8,0.6c0.5,0,0.9-0.5,1.4-0.5c1.2,0,1.7,1.5,2.7,2
		c0.2,0.1,0.6,0.1,0.9,0.2c0.3,0.1,0.4,0.2,0.7,0.2c0.5,0.2,1.1,0.2,1.5,0.3c0.6,0.3,1.1,1.4,1.6,1.7c0,0.3-0.1,0.7,0,1
		c0.2,0.3,0.6,0.3,1,0.5c0.5,0.3,0.6,1,1.1,1.2c0.2,0.1,0.6,0.1,0.8,0.2c0.6,0.2,0.9,0.9,1.4,0.8c0.4-0.1,0.3-0.5,0.4-0.8
		c0.2-0.3,0.5-0.7,0.9-0.7c0.6,0,0.7,0.6,0.9,1.2c0.1,0.3,0.5,0.6,0.5,1c0.2,0.6,0.1,2.4,0,2.7c-0.2,0.4-0.7,0.6-1.1,1.1
		c-0.2,0.2-0.3,0.6-0.4,0.7c-0.2,0.3-0.6,0.4-0.8,0.6c-0.1,0.2-0.2,0.5-0.3,0.7c-0.3,0.6-0.7,1-0.4,1.8c0.1,0.3,0.6,0.5,0.6,0.9
		c0,0.4-0.9,0.8-1,1.2c-0.1,0.3,0.3,1,0.4,1.4c0.1,0.3,0.7,0.5,0.9,0.8c0.3,0.4,0.6,0.9,0.9,1.4c0.6,0.9,1.1,2.1,1.7,3
		c0.2,0.3,0.4,0.5,0.6,0.7c0.2,0.2,0.3,0.4,0.4,0.7c0.1,0.3,0.1,0.5,0.2,0.8c0.3,0.8,1.9,1.6,2.7,2c0.4,0.2,0.8,0.2,1.1,0.4
		c0.5,0.3,1.5,1.1,1.8,1.5c0.2,0.4,0.4,1.4,0.5,2c0.1,0.9,0,1.5,0,2.4c0,0.4,0.1,0.8,0.2,1.3c11-2.7,20.4-9.6,26.2-19
		c-0.5-0.4-0.9-0.8-1.5-0.8C84.5,71.5,84.2,71.7,83.9,71.6z"/>
	<path d="M94.8,45.4c-0.1-0.8-0.2-1.5-0.3-2.3c-0.1-0.7-0.2-1.5-0.4-2.2c-0.1-0.7-0.3-1.5-0.5-2.2c-0.4-1.4-0.8-2.9-1.3-4.2
		c-0.1-0.3-0.3-0.7-0.4-1c-0.4-1-0.8-2-1.3-3c-0.2-0.3-0.3-0.6-0.5-1c-0.3-0.6-0.7-1.3-1-1.9c-1.1-1.9-2.3-3.7-3.6-5.4
		c-0.7-0.8-1.4-1.7-2.1-2.5c-0.5-0.5-1-1-1.5-1.6c-0.5-0.5-1-1-1.6-1.5c-1-0.9-2.1-1.8-3.2-2.7c-1.5-1.1-3-2.1-4.6-3.1
		c-0.6-0.4-1.3-0.7-1.9-1c-0.3-0.1-0.6-0.3-0.9-0.4c-0.4-0.2-0.7-0.3-1.1-0.5c-0.2-0.1-0.3-0.1-0.5-0.2c-0.5-0.2-1-0.4-1.6-0.7
		c0,0,0,0,0,0c-0.6-0.2-1.1-0.4-1.7-0.6c-0.1,0-0.2-0.1-0.3-0.1c-1.3-0.4-2.7-0.8-4.1-1.2C59.9,6.1,59.5,6,59,5.9
		c-0.3-0.1-0.6-0.1-1-0.2c-1.6-0.3-3.3-0.5-5-0.6C52.4,5.1,51.6,5,50.8,5c-0.3,0-0.5,0-0.8,0c-0.5,0-0.9,0-1.4,0
		c-4.5,0.1-8.9,0.9-13,2.3c-0.7,0.2-1.4,0.5-2.1,0.8c-0.2,0.1-0.4,0.2-0.6,0.3c-0.5,0.2-0.9,0.4-1.4,0.6c-0.7,0.3-1.3,0.6-2,0.9
		c-0.6,0.3-1.3,0.7-1.9,1c-2.5,1.5-4.9,3.1-7.1,5c-0.3,0.2-0.5,0.5-0.8,0.7c-0.5,0.5-1,1-1.6,1.5c-0.5,0.5-1,1-1.5,1.6
		c-0.7,0.8-1.4,1.6-2.1,2.5c-1.3,1.7-2.6,3.5-3.6,5.4c-0.4,0.6-0.7,1.3-1,1.9c-0.2,0.3-0.3,0.6-0.5,1c-0.5,1-0.9,2-1.3,3
		c-0.1,0.3-0.3,0.7-0.4,1c-0.5,1.4-0.9,2.8-1.3,4.2c-0.2,0.7-0.4,1.4-0.5,2.2c-0.2,0.7-0.3,1.5-0.4,2.2c-0.1,0.7-0.2,1.5-0.3,2.3
		C5.1,46.9,5,48.4,5,50c0,1.5,0.1,3.1,0.2,4.6c0.1,0.8,0.2,1.5,0.3,2.3c0.1,0.8,0.2,1.5,0.4,2.2c0.2,0.7,0.3,1.5,0.5,2.2
		c0.4,1.4,0.8,2.9,1.3,4.2c0.3,0.7,0.5,1.4,0.8,2c0.3,0.7,0.6,1.3,0.9,2c0.2,0.3,0.3,0.7,0.5,1c0.3,0.6,0.7,1.3,1,1.9
		c1.1,1.9,2.3,3.7,3.6,5.4c0.7,0.8,1.4,1.7,2.1,2.5c0.5,0.5,1,1.1,1.5,1.6c0.5,0.5,1,1,1.6,1.5c2.4,2.2,5,4.1,7.9,5.7
		c0.6,0.4,1.3,0.7,1.9,1c1.3,0.7,2.6,1.3,4,1.8c0.7,0.3,1.4,0.5,2.1,0.8C40.1,94.2,45,95,50,95c1.1,0,2.1,0,3.1-0.1
		c2.3-0.2,4.6-0.5,6.9-1c1.5-0.3,3-0.8,4.4-1.2c0.7-0.2,1.4-0.5,2.1-0.8c1.4-0.5,2.7-1.1,4-1.8c0.6-0.3,1.3-0.7,1.9-1
		c2.8-1.6,5.5-3.5,7.9-5.7c0.5-0.5,1.1-1,1.6-1.5c0.5-0.5,1-1,1.5-1.6c0.7-0.8,1.4-1.6,2.1-2.5c1.1-1.3,2-2.7,2.9-4.2
		c0.2-0.4,0.5-0.8,0.7-1.2c0.4-0.6,0.7-1.3,1-1.9c0.2-0.3,0.3-0.6,0.5-1c0.3-0.7,0.6-1.3,0.9-2c0.3-0.7,0.6-1.4,0.8-2
		c0.5-1.4,0.9-2.8,1.3-4.2c0.2-0.7,0.4-1.4,0.5-2.2c0.2-0.7,0.3-1.5,0.4-2.2c0.1-0.7,0.2-1.5,0.3-2.3c0.2-1.5,0.2-3,0.2-4.6
		C95,48.4,94.9,46.9,94.8,45.4z M60,91.4c0-0.4-0.2-0.9-0.2-1.3c0-0.9,0.1-1.6,0-2.4c-0.1-0.6-0.3-1.6-0.5-2
		c-0.3-0.4-1.3-1.2-1.8-1.5c-0.3-0.2-0.7-0.3-1.1-0.4c-0.8-0.4-2.3-1.2-2.7-2c-0.1-0.2-0.1-0.5-0.2-0.8c-0.1-0.2-0.2-0.4-0.4-0.7
		c-0.2-0.2-0.4-0.5-0.6-0.7c-0.6-0.9-1.1-2.1-1.7-3c-0.3-0.5-0.6-1-0.9-1.4c-0.2-0.2-0.8-0.4-0.9-0.8c-0.1-0.4-0.4-1.1-0.4-1.4
		c0.1-0.5,1-0.8,1-1.2c0-0.4-0.5-0.6-0.6-0.9c-0.2-0.7,0.1-1.2,0.4-1.8c0.1-0.2,0.2-0.5,0.3-0.7c0.2-0.3,0.5-0.3,0.8-0.6
		c0.1-0.2,0.2-0.5,0.4-0.7c0.4-0.5,1-0.7,1.1-1.1c0.1-0.4,0.2-2.1,0-2.7c-0.1-0.3-0.4-0.6-0.5-1c-0.2-0.6-0.3-1.2-0.9-1.2
		c-0.4,0-0.6,0.4-0.9,0.7c-0.1,0.3,0,0.7-0.4,0.8c-0.6,0.2-0.8-0.6-1.4-0.8c-0.3-0.1-0.7-0.1-0.8-0.2c-0.5-0.2-0.6-0.9-1.1-1.2
		c-0.4-0.2-0.8-0.1-1-0.5c-0.1-0.2,0-0.7,0-1c-0.5-0.3-1-1.5-1.6-1.7c-0.4-0.2-1-0.2-1.5-0.3c-0.2-0.1-0.4-0.2-0.7-0.2
		c-0.3-0.1-0.6-0.1-0.9-0.2c-1-0.5-1.5-2-2.7-2c-0.5,0-1,0.5-1.4,0.5c-0.5,0-1.2-0.4-1.8-0.6c-0.6-0.3-1.2-0.4-1.7-0.7
		c-0.4-0.2-0.7-0.6-1-0.7c-0.3-0.1-0.7-0.1-0.9-0.2c-0.3-0.2-0.6-0.5-1-0.7c-0.4-0.3-0.8-0.6-0.8-1c0-0.4,0.4-0.7,0.4-1.1
		c0.1-1.2-0.7-2-1.3-2.7c-0.4-0.5-0.9-0.9-1.3-1.4c0-0.3,0-0.4,0-0.7c-0.3-0.3-0.6-0.7-0.9-1.2c-0.3-0.4-0.8-0.8-0.9-1.3
		c-0.1-0.5,0.2-1,0-1.5c-0.3-0.9-1.6-0.5-1.4,0.7c0,0.3,0.5,0.7,0.6,1.1c0.1,0.3,0.1,0.7,0.2,1.1c0.1,0.4,0.5,0.7,0.6,1.1
		c0.2,0.7,0.2,1.4,0.4,1.8c0.2,0.4,0.8,0.7,0.4,1.2c-0.5,0.1-0.6-0.4-0.9-0.6c-0.2-0.2-0.7-0.4-0.8-0.8c-0.1-0.3,0.2-0.7,0.1-1
		c-0.2-0.7-1.5-0.7-1.6-1.4c0-0.4,0.6-0.5,0.6-0.9c0-0.5-0.6-0.9-0.8-1.2c-0.1-0.4-0.1-0.9-0.2-1.5c0-0.5,0-1-0.1-1.4
		c-0.1-0.3-0.6-0.8-0.9-1c-0.4-0.2-0.8-0.1-1-0.5c-0.2-0.3-0.3-0.9-0.3-1.3c-0.1-0.6,0-1.2,0-1.8c0-0.6-0.1-1.2,0-1.9
		c0.2-0.5,0.7-0.7,0.9-1.2c0.2-0.3,0.2-0.7,0.4-1.1c0.4-0.6,1.1-1.2,1.6-1.8c0.6-0.7,1.1-1.3,1.4-2.1c0.1-0.3,0.4-0.9,0.4-1.2
		c-0.1-0.5-0.9-0.8-0.9-1.4c0-0.3,0.5-0.3,0.7-0.7c0.1-0.2,0.1-0.7,0.1-0.9c0-0.5-0.2-1-0.1-1.5c0.1-0.4,0.7-0.6,0.4-1.1
		c-0.3-0.5-0.9,0.2-1.3,0c-0.3-0.3,0.1-0.6,0.1-1.1c0-0.2-0.1-0.4-0.1-0.6c0-0.2,0.4-0.6,0.3-0.7c-0.2-0.2-0.4-0.7-0.6-1
		c5.4-4.3,11.9-7.4,18.9-8.6c0.1,0.1,0.2,0.3,0.4,0.4c0.4-0.2,0.8,0,1.3,0c0.5,0,0.9-0.2,1.4-0.1c0.9,0.1,2.1,1,2.8,0.5
		c0.2-0.1,0.1-0.3,0.3-0.6c0.1-0.2,0.3-0.5,0.4-0.8c0.4,0,0.7,0,1,0c1.1,0,2.1,0,3.1,0.1c1.8,0.1,3.6,0.4,5.4,0.7
		c-0.1,0.3-0.5,0.2-0.8,0.3C57.4,8.7,57.3,9,57,9.1c-0.9,0.2-1.6-0.2-2.4-0.2c0,0.3,0.4,0.5,0.6,0.6c0.7,0.4,1.3,0.3,2.2,0.3
		c0.5,0,1.1,0.1,1.5-0.1c0.3-0.2,0.3-0.6,0.5-0.8c0.1-0.1,0.2-0.2,0.4-0.3c0.5,0.1,1,0.2,1.4,0.4c-0.1,0.3-0.6,0.2-0.6,0.7
		c0.3,0.2,1.1-0.1,1.4-0.5c0.1,0,0.2,0.1,0.4,0.1c0.7,0.2,1.4,0.4,2,0.7c1,0.3,1.9,0.7,2.8,1.1c-0.2,0.1-0.4,0.2-0.5,0.2
		c-0.4,0-0.6-0.5-1-0.3c0,0.5,0.5,0.7,0.9,1c0.4,0.3,0.8,0.5,1,1c-0.4,0.8-1,0-1.6,0c-0.7,0-1.7,1.3-2.3,0.2
		c0.1-0.6,0.8-0.7,0.9-1.2c-0.1,0-0.3,0.1-0.4,0.1c-0.2,0.1-0.5,0.2-0.7,0.3c-0.3,0.2-0.6,0.3-1,0.4c-0.3,0.1-0.7,0.1-1,0.1
		c-0.6,0.2-1,0.6-1.6,0.8c-0.2,0.1-0.5,0.1-0.8,0.1c-0.6,0.2-1.3,0.5-1.9,0.9c-0.6,0.3-1.3,0.7-1.7,1c-0.2,0.2-0.7,0.8-0.7,1
		c0,0.3,0.6,0.4,0.6,0.7c0,0.2-0.3,0.6-0.1,0.8c0.2,0.2,0.6,0,1,0.1c0.7,0.1,1.2,0.7,1.8,1c0.4,0.2,1.1,0.5,1.5,0.6
		c0.7,0.1,1.4-0.2,1.5,0.3c0.1,0.5-0.6,0.7-0.7,1c0.4,0.5-0.2,0.7-0.2,1.1c0,0.3,0.4,0.8,0.8,0.9c0.5,0,1.2-0.5,1.4-1
		c0.2-0.6,0.1-1.4,0.6-1.8c2.3,0.1,4.2-1,4-3.3c0-0.2-0.1-0.5-0.1-0.8c0.1-0.4,0.7-0.7,0.6-1.2c0.2-0.1,0.4-0.3,0.5-0.5
		c0.2-0.3,0.3-0.7,0.7-0.8c0,0,0,0,0.1,0c0.2,0,0.4,0,0.6,0.1c0.4,0.1,0.8,0.3,1.3,0.3c0.2,0,0.5-0.2,0.8-0.2
		c0.5,0.1,0.8,0.6,1.1,0.9c0.3,0.2,1.2,0.2,1.2,0.5c-0.1,0.5,0.1,0.6,0.1,1v0c0,0.4,0,0.8,0.2,0.8c0.4,0.1,0.6-0.1,1-0.3
		c0.4-0.2,0.6-0.6,0.9-0.8c0.5,0.4,0.9,0.7,1.3,1.1c0.1,0.2,0.1,0.4,0.1,0.5c0.1,0.5-0.1,0.9-0.1,1.4c0.1,0.8,1.1,0.7,1.6,1.2
		c0.2,0.1,0.2,0.5,0.3,0.6c0.2,0.3,0.5,0.3,0.6,0.7c0.1,0.8-0.8,0.9-0.7,1.8c-0.2,0.4-0.6,0.3-0.6,0.8c0.1,0.8,1.2,0.2,1.4,0.8
		c0.2,0.3,0,0.6-0.1,1c0.4,0.5,0.4,1.2-0.3,1.2c-0.4,0-0.5-0.4-0.9-0.5c-0.2-0.1-0.5,0-0.8-0.1c-0.2,0-0.5-0.1-0.8-0.1
		c-0.6-0.1-1.2,0.1-1.6-0.2c0.6-0.8,1.3-1.5,2.1-2.2c0.2-0.2,0.7-0.3,0.6-0.7c-0.4-0.4-0.9,0-1.3,0.2c-0.4,0.2-0.9,0.6-1.4,0.6
		c-0.8,0.1-1.9-0.2-2.5,0.2c-0.1,0.4,0.7,0.2,0.6,0.8c-0.3,0.1-0.6,0.1-0.9-0.1c-0.2-0.2-0.1-0.5-0.2-0.6c-0.2-0.2-1.2-0.3-1.6-0.2
		c-0.5,0.1-1,0.4-1,0.8c0.6,0.3,1.6-0.3,1.8,0.4c-0.3,0.6-1.1,0.9-1,1.7c0,0.3,0.4,0.7,0.7,0.8c0.3,0,0.4-0.2,0.7-0.2
		c0.3,0,0.2,0.3,0.5,0.3c0.5-0.2,0.7-0.8,1.3-0.8c0.6,0.8-0.6,1.2-1.3,1.4c-0.8,0.3-1.8,0.4-2.4,0.7c-0.3,0.1-1.5,1.3-1.6,0.4
		c-0.1-0.6,0.6-0.5,0.7-1c-0.7-0.2-1.4,0.3-2.1,0.6c-1,0.4-2.6,0.6-2.9,1.7c0,0.2,0.1,0.6-0.1,0.8c-0.1,0.1-0.8,0.1-1.1,0.2
		c-0.5,0.2-0.9,0.5-1.2,0.6c-0.2,0.1-0.5,0-0.7,0.1c-0.4,0.2-0.5,0.7-1,1c-0.2,0.1-0.6,0.2-0.7,0.4c-0.3,0.2-0.3,0.9-0.7,1
		c-0.3,0-0.5-0.2-0.8-0.1c0,0.6,0.2,1.5,0,2.1c-0.6,0.5-1.2,0.8-1.9,1.2c-0.4,0.2-0.8,0.3-1.3,0.5c-0.3,0.2-0.7,0.6-1.1,0.8
		c-0.2,0.1-0.5,0.3-0.7,0.4c-0.7,0.5-1.3,1.1-1.3,2.1c0,0.3,0.2,0.6,0.2,1c0,0.2,0,0.4,0,0.6c0.1,0.5,0.4,1.2,0,1.5
		c-0.6-0.3-1.5-0.4-1.9-0.8c-0.1-0.5,0.2-0.9,0.2-1.3c0-0.3-0.5-1-0.8-1c-0.3,0-0.6,0.3-0.9,0.2c-0.4,0-0.7-0.5-1.2-0.6
		c-0.7-0.1-1.2,0.2-1.9,0c-0.7,0.4-0.9,1.1-1.8,1c-0.3,0-0.6-0.3-1-0.3c-0.4-0.1-1-0.2-1.4-0.2c-0.8,0.1-1.4,0.6-2.1,1
		c-0.6,0.3-1.5,0.7-1.7,1.4c-0.1,0.4,0,0.9-0.1,1.2c-0.1,0.2-0.3,0.4-0.4,0.6c-0.5,1-1,2.3-0.6,3.7c0.1,0.2,0.6,1.4,0.8,1.6
		c0.2,0.3,1,0.7,1.4,0.7c0.4,0,0.8-0.2,1.1-0.2c0.4-0.1,0.9-0.1,1.3-0.2c1.1-0.3,0.8-1.7,1.9-2.2c0.5-0.2,1-0.3,1.8-0.3
		c0.3,0.2,0.4,0.6,0.3,0.9c0,0.2-0.3,0.5-0.4,0.8c-0.1,0.3-0.1,0.7-0.2,0.9c-0.1,0.3-0.5,0.6-0.6,0.9c-0.1,0.2,0,0.5-0.1,0.6
		c-0.1,0.3-0.5,0.5-0.3,0.9c1,0.4,2.3-0.1,3.2,0.1c0.4,0.1,1.2,0.5,1.2,1.1c0,0.4-0.3,0.7-0.4,1.2c-0.1,0.6-0.3,1.3-0.3,1.8
		c0,0.8,1.2,2.2,2,2.2c0.9,0,1.5-0.9,2.6-0.4c0.4,0.2,0.8,0.8,1.2,0.7c0.1,0,0.3-0.1,0.5-0.3c0.2-0.2,0.5-0.5,0.6-0.8
		c0.3-0.5,0.3-0.9,0.8-1.2c0.5-0.3,0.9-0.1,1.6-0.4c0.3-0.1,0.6-0.3,0.8-0.5c0.2-0.2,0.5-0.6,0.8-0.3c0.4,0.4-0.5,0.6-0.1,1
		c0.7,0.4,1-0.7,1.5-0.7c0.2,0,0.7,0.3,1,0.5c0.4,0.2,0.5,0.6,0.9,0.7c0.3,0,0.7-0.1,1.1-0.1c0.5,0.1,0.8,0.5,1.2,0.5
		c0.5,0,0.7-0.5,1.1-0.6c0.8-0.2,1.2,0.1,1.5,0.6c0.4,0.1,0.4-0.5,0.8-0.3c-0.2,0.4,0.1,0.6,0.2,1c0.1,0.2,0.1,0.4,0.2,0.5
		c0.2,0.2,0.7,0.2,1,0.4c0.4,0.2,0.6,0.6,1,1.1c0.4,0.5,1.1,1,1.7,1c0.5,0,1-0.2,1.4-0.1c1,0.1,1.6,0.6,2.3,1.2
		c0.4,0.3,0.7,0.5,0.9,0.9c0.1,0.3,0,0.6,0.1,0.9c0.2,0.6,1.1,0.9,0.8,1.9c0.1,0.3,0.5,0.4,0.8,0.6c0.3,0.2,0.5,0.5,0.8,0.6
		c0.2,0,0.4-0.1,0.6,0c0.5,0,0.9,0.2,1.4,0.4c0.3,0.1,0.7,0.2,0.9,0.3c0.2,0.2,0.3,0.7,0.6,0.9c0.2,0.1,0.6,0,1,0
		c0.5,0.1,1.2,0.4,1.7,0.4c0.3,0,0.5-0.1,0.8-0.1c0.6,0,1.1,0.4,1.5,0.8C80.4,81.8,71,88.7,60,91.4z"/>
</g>
</svg>
