<?xml version="1.0" encoding="utf-8"?>
<!-- Generator: Adobe Illustrator 21.0.2, SVG Export Plug-In . SVG Version: 6.00 Build 0)  -->
<svg version="1.1" id="Calque_1" xmlns="http://www.w3.org/2000/svg" xmlns:xlink="http://www.w3.org/1999/xlink" x="0px" y="0px"
	 viewBox="0 0 100 125" style="enable-background:new 0 0 100 125;" xml:space="preserve">
<style type="text/css">
	.st0{fill:none;stroke:#000000;stroke-width:2;stroke-linecap:round;stroke-miterlimit:10;stroke-dasharray:4;}
</style>
<path d="M53.5,83.4c-0.7,0-1.4,0-2.2-0.1c-0.6,0-1-0.5-1-1.1c0-0.6,0.5-1,1.1-1c1.4,0.1,2.8,0.1,4.1,0c0.6,0,1.1,0.4,1.1,1
	s-0.4,1.1-1,1.1C55,83.4,54.3,83.4,53.5,83.4z"/>
<path d="M47.2,82.9c-0.1,0-0.1,0-0.2,0c-1.4-0.3-2.9-0.6-4.3-1.1c-0.6-0.2-0.9-0.8-0.7-1.3c0.2-0.6,0.8-0.9,1.3-0.7
	c1.3,0.4,2.6,0.7,4,1c0.6,0.1,1,0.7,0.8,1.2C48.2,82.5,47.7,82.9,47.2,82.9z"/>
<path d="M39.2,80.3c-0.1,0-0.3,0-0.4-0.1c-1.3-0.6-2.6-1.3-3.9-2.1c-0.5-0.3-0.7-1-0.3-1.5c0.3-0.5,1-0.7,1.5-0.3
	c1.2,0.7,2.4,1.4,3.6,1.9c0.5,0.2,0.8,0.9,0.5,1.4C39.9,80.1,39.6,80.3,39.2,80.3z"/>
<path d="M31.9,75.8c-0.2,0-0.5-0.1-0.7-0.2c-1.1-0.9-2.2-1.9-3.2-3c-0.4-0.4-0.4-1.1,0-1.5c0.4-0.4,1.1-0.4,1.5,0c0.9,1,2,1.9,3,2.8
	c0.5,0.4,0.5,1,0.2,1.5C32.6,75.7,32.3,75.8,31.9,75.8z"/>
<path d="M26.1,69.7c-0.3,0-0.6-0.1-0.9-0.4c-0.9-1.2-1.7-2.4-2.4-3.7c-0.3-0.5-0.1-1.2,0.4-1.4c0.5-0.3,1.2-0.1,1.4,0.4
	c0.7,1.2,1.4,2.3,2.2,3.4c0.4,0.5,0.3,1.1-0.2,1.5C26.5,69.7,26.3,69.7,26.1,69.7z"/>
<path d="M81.1,69.7c-0.2,0-0.4-0.1-0.6-0.2c-0.5-0.3-0.6-1-0.2-1.5c0.8-1.1,1.6-2.3,2.2-3.5c0.3-0.5,0.9-0.7,1.4-0.4
	c0.5,0.3,0.7,0.9,0.4,1.4c-0.7,1.3-1.5,2.5-2.4,3.7C81.7,69.5,81.4,69.7,81.1,69.7z"/>
<path d="M85.2,62.3c-0.1,0-0.3,0-0.4-0.1c-0.5-0.2-0.8-0.8-0.6-1.4c0.5-1.3,0.9-2.6,1.3-3.9c0.1-0.6,0.7-0.9,1.3-0.8
	c0.6,0.1,0.9,0.7,0.8,1.3c-0.4,1.4-0.8,2.8-1.4,4.2C86,62,85.6,62.3,85.2,62.3z"/>
<path d="M87.4,54.1c0,0-0.1,0-0.1,0c-0.6-0.1-1-0.6-0.9-1.2c0.2-1.4,0.3-2.7,0.3-4.1v-0.1c0-0.6,0.5-1.1,1.1-1.1
	c0.6,0,1.1,0.5,1.1,1.1l0,0.1c0,1.5-0.1,2.9-0.3,4.4C88.3,53.7,87.9,54.1,87.4,54.1z"/>
<path d="M87.3,45.5c-0.5,0-1-0.4-1-0.9c-0.2-1.4-0.4-2.7-0.8-4c-0.2-0.6,0.2-1.1,0.8-1.3c0.6-0.2,1.1,0.2,1.3,0.8
	c0.4,1.4,0.7,2.9,0.9,4.3c0.1,0.6-0.3,1.1-0.9,1.2C87.4,45.5,87.4,45.5,87.3,45.5z"/>
<path d="M21.8,37.5c-0.1,0-0.3,0-0.4-0.1c-0.5-0.2-0.8-0.8-0.6-1.4c0.5-1.3,1.2-2.7,1.9-4c0.3-0.5,0.9-0.7,1.4-0.4
	c0.5,0.3,0.7,0.9,0.4,1.4c-0.7,1.2-1.3,2.4-1.8,3.7C22.7,37.2,22.3,37.5,21.8,37.5z"/>
<path d="M26,30.1c-0.2,0-0.4-0.1-0.6-0.2c-0.5-0.3-0.6-1-0.2-1.5C26,27.2,27,26.1,28,25c0.4-0.4,1.1-0.4,1.5,0
	c0.4,0.4,0.4,1.1,0,1.5c-0.9,1-1.8,2-2.7,3.1C26.6,29.9,26.3,30.1,26,30.1z"/>
<path d="M31.8,23.9c-0.3,0-0.6-0.1-0.8-0.4c-0.4-0.5-0.3-1.1,0.2-1.5c1.1-0.9,2.3-1.8,3.6-2.5c0.5-0.3,1.2-0.2,1.5,0.3
	c0.3,0.5,0.2,1.1-0.3,1.5c-1.2,0.7-2.3,1.5-3.3,2.4C32.3,23.8,32.1,23.9,31.8,23.9z"/>
<path d="M39,19.4c-0.4,0-0.8-0.2-1-0.6c-0.2-0.5,0-1.2,0.5-1.4c1.3-0.6,2.7-1.1,4.1-1.6c0.6-0.2,1.2,0.1,1.3,0.7
	c0.2,0.6-0.1,1.2-0.7,1.3c-1.3,0.4-2.6,0.9-3.8,1.5C39.3,19.4,39.2,19.4,39,19.4z"/>
<path d="M67.9,19.3c-0.1,0-0.3,0-0.4-0.1c-1.2-0.6-2.5-1.1-3.8-1.5c-0.6-0.2-0.9-0.8-0.7-1.3c0.2-0.6,0.8-0.9,1.3-0.7
	c1.4,0.4,2.8,1,4.1,1.6c0.5,0.2,0.8,0.9,0.5,1.4C68.7,19.1,68.3,19.3,67.9,19.3z"/>
<path d="M47.1,16.8c-0.5,0-0.9-0.4-1-0.9c-0.1-0.6,0.3-1.1,0.8-1.2c1.4-0.3,2.9-0.5,4.3-0.5c0.6,0,1.1,0.4,1.1,1
	c0,0.6-0.4,1.1-1,1.1c-1.4,0.1-2.7,0.3-4.1,0.5C47.2,16.8,47.2,16.8,47.1,16.8z"/>
<path d="M59.8,16.8c-0.1,0-0.1,0-0.2,0c-1.3-0.2-2.7-0.4-4.1-0.5c-0.6,0-1-0.5-1-1.1c0-0.6,0.5-1,1.1-1c1.5,0.1,2.9,0.3,4.3,0.5
	c0.6,0.1,1,0.7,0.9,1.2C60.7,16.4,60.3,16.8,59.8,16.8z"/>
<ellipse class="st0" cx="53.5" cy="48.8" rx="24.4" ry="24.1"/>
<path d="M53.5,63.6c-8.3,0-15.1-6.7-15.1-14.9c0-8.2,6.8-14.9,15.1-14.9c8.3,0,15.1,6.7,15.1,14.9C68.6,57,61.8,63.6,53.5,63.6z
	 M53.5,36c-7.1,0-12.9,5.7-12.9,12.7c0,7,5.8,12.7,12.9,12.7c7.1,0,12.9-5.7,12.9-12.7C66.5,41.7,60.7,36,53.5,36z"/>
<g>
	<path d="M59.9,82.9c-0.5,0-0.9-0.4-1-0.9c-0.1-0.6,0.3-1.1,0.8-1.2c1.3-0.3,2.7-0.6,4-1c0.6-0.2,1.2,0.1,1.3,0.7
		c0.2,0.6-0.1,1.2-0.7,1.3c-1.4,0.4-2.8,0.8-4.2,1.1C60.1,82.8,60,82.9,59.9,82.9z"/>
	<path d="M75.2,75.8c-0.3,0-0.6-0.1-0.8-0.4c-0.4-0.5-0.3-1.1,0.2-1.5c1.1-0.9,2.1-1.8,3-2.8c0.4-0.4,1.1-0.4,1.5,0
		c0.4,0.4,0.4,1.1,0,1.5c-1,1.1-2.1,2-3.2,3C75.7,75.7,75.4,75.8,75.2,75.8z"/>
	<path d="M70,85.5c-3.6,0-6.5-2.9-6.5-6.5c0-3.6,2.9-6.5,6.5-6.5c3.6,0,6.5,2.9,6.5,6.5C76.5,82.6,73.6,85.5,70,85.5z M70,74.8
		c-2.4,0-4.3,1.9-4.3,4.3c0,2.4,1.9,4.3,4.3,4.3s4.3-1.9,4.3-4.3C74.3,76.7,72.4,74.8,70,74.8z"/>
</g>
<path d="M25.3,50.9c0-2.9-1.9-5.4-4.5-6.4c0.2-1.3,0.4-2.6,0.7-3.8c0.1-0.6-0.2-1.1-0.8-1.3c-0.6-0.1-1.1,0.2-1.3,0.8
	c-0.3,1.3-0.6,2.6-0.8,4c-0.1,0-0.1,0-0.2,0c-3.7,0-6.8,3-6.8,6.8s3,6.8,6.8,6.8c0.3,0,0.7,0,1-0.1c0.4,1.4,0.8,2.8,1.4,4.1
	c0.2,0.4,0.6,0.7,1,0.7c0.1,0,0.3,0,0.4-0.1c0.5-0.2,0.8-0.8,0.6-1.4c-0.5-1.3-1-2.6-1.3-3.9c0,0,0,0,0,0
	C23.8,55.8,25.3,53.5,25.3,50.9z M18.5,55.5c-2.6,0-4.7-2.1-4.7-4.7s2.1-4.7,4.7-4.7s4.7,2.1,4.7,4.7S21.1,55.5,18.5,55.5z"/>
<path d="M84.2,31.9c0-0.1-0.1-0.1-0.2-0.2c1.6-1.2,2.6-3.1,2.6-5.2c0-3.6-2.9-6.5-6.5-6.5c-1.8,0-3.4,0.7-4.6,1.9
	c-1.1-0.9-2.2-1.7-3.4-2.4c-0.5-0.3-1.2-0.2-1.5,0.3c-0.3,0.5-0.2,1.1,0.3,1.5c1.1,0.7,2.2,1.5,3.3,2.3c-0.5,0.9-0.7,1.9-0.7,3
	c0,3.6,2.9,6.5,6.5,6.5c0.8,0,1.5-0.1,2.1-0.4c0,0.1,0,0.2,0.1,0.3c0.7,1.2,1.3,2.4,1.8,3.7c0.2,0.4,0.6,0.7,1,0.7
	c0.1,0,0.3,0,0.4-0.1c0.5-0.2,0.8-0.8,0.6-1.4C85.6,34.5,85,33.1,84.2,31.9z M75.7,26.4c0-2.4,2-4.4,4.4-4.4s4.4,2,4.4,4.4
	s-2,4.4-4.4,4.4S75.7,28.9,75.7,26.4z"/>
</svg>
