<?xml version="1.0" encoding="utf-8"?>
<!-- Generator: Adobe Illustrator 21.0.2, SVG Export Plug-In . SVG Version: 6.00 Build 0)  -->
<svg version="1.1" id="Calque_1" xmlns="http://www.w3.org/2000/svg" xmlns:xlink="http://www.w3.org/1999/xlink" x="0px" y="0px"
	 viewBox="0 0 100 125" style="enable-background:new 0 0 100 125;" xml:space="preserve">
<path d="M85,39.7c0-3.3-2.7-6-6-6c-3.3,0-6,2.7-6,6s2.7,6,6,6C82.3,45.7,85,43,85,39.7z M76.2,39.7c0-1.6,1.3-2.9,2.9-2.9
	c1.6,0,2.9,1.3,2.9,2.9s-1.3,2.9-2.9,2.9C77.4,42.5,76.2,41.2,76.2,39.7z"/>
<path d="M45.2,25.1c-13.3,0-24.1,10.8-24.1,24.1c0,2.6,0.4,5.1,1.2,7.6c-3.8,1.3-6.6,4.9-6.6,9.2c0,5.4,4.4,9.8,9.8,9.8
	c3.7,0,7-2.1,8.6-5.2c3.4,1.8,7.2,2.7,11.1,2.7c13.3,0,24.1-10.8,24.1-24.1S58.5,25.1,45.2,25.1z M61,35.3c2.4,2.7,4.1,6,4.8,9.6
	c-2.6-1.6-4.4-4.3-4.8-7.4C60.9,36.7,60.9,36,61,35.3z M34.4,31.1c0.1,0.4,0.1,0.9,0.2,1.4c0.2,1.2,0.7,2.4,1.1,3.5
	c0.8,2.3,1.6,4.3,0.5,6.5c-1.3,2.8-3.3,2.9-6.6,2.3l-0.5-0.1c-1.1-0.2-2.7-0.5-4.3-0.9C26.2,38.5,29.7,33.9,34.4,31.1z M24.4,45.8
	c1.6,0.4,3.2,0.7,4.4,0.9l0.5,0.1c1,0.2,2,0.4,3,0.4c2.2,0,4.3-0.8,5.7-3.8c1.4-3,0.5-5.6-0.4-8.1c-0.4-1.1-0.8-2.1-1-3.2
	c-0.1-0.7-0.2-1.4-0.3-2c2.1-1,4.4-1.6,6.8-1.9c-0.5,2.5-0.1,5.3,1.4,8.7c2.5,5.8,4.3,11.4,0.5,16c-3.3,4-8.2,2.8-13.5,1.6
	c-2.1-0.5-4.3-1-6.4-1.1c-0.2,0-0.4,0-0.6,0c-0.3-1.3-0.4-2.7-0.4-4.1C24.1,48,24.2,46.9,24.4,45.8z M25.5,72.6
	c-3.6,0-6.6-3-6.6-6.6s3-6.6,6.6-6.6c3.6,0,6.6,3,6.6,6.6S29.1,72.6,25.5,72.6z M45.2,70.3c-3.5,0-7-0.9-10.1-2.6
	c0.1-0.6,0.2-1.1,0.2-1.7c0-1.1-0.2-2.2-0.6-3.2c1,0.1,2,0.3,3.1,0.7c2,0.6,3.8,1.6,5.6,2.6c0.9,0.5,1.8,1,2.8,1.5
	c1.6,0.8,3.2,1.4,4.9,1.9C49.2,70,47.2,70.3,45.2,70.3z M54.5,68.1c-2.6-0.4-5.1-1.2-7.4-2.4c-0.9-0.5-1.8-1-2.7-1.5
	c-1.9-1.1-3.7-2.1-6-2.8c-1.6-0.5-3.1-0.8-4.7-0.9c-1.7-2.7-4.7-4.4-8.2-4.4c-0.1,0-0.1,0-0.2,0c-0.1-0.3-0.2-0.6-0.3-0.9
	c0,0,0,0,0,0c1.8,0.1,3.9,0.6,6,1.1c2.5,0.6,5.1,1.2,7.7,1.2c2.9,0,5.6-0.8,7.8-3.5c4.6-5.5,2.4-11.9-0.2-18c-1.4-3.2-1.8-5.7-1.1-8
	c3.3,0,6.4,0.8,9.1,2.1c-0.9,2.1-1.4,4.4-1.4,6.8c0,7.8,5.5,14.6,13,16.4C64.5,59.9,60.2,65.3,54.5,68.1z M54.9,37
	c0-2,0.4-4,1.2-5.8c1.1,0.7,2.2,1.5,3.2,2.3c-0.3,1.4-0.4,2.8-0.2,4.2c0.5,4.3,3.3,7.9,7.2,9.7c0.1,0.6,0.1,1.2,0.1,1.8
	c0,0.7,0,1.5-0.1,2.2C59.6,49.8,54.9,43.8,54.9,37z"/>
<path d="M52.2,56.8c0,2.1,1.7,3.9,3.9,3.9c2.1,0,3.9-1.7,3.9-3.9c0-2.1-1.7-3.9-3.9-3.9C53.9,53,52.2,54.7,52.2,56.8z M57.9,56.8
	c0,1-0.8,1.9-1.9,1.9s-1.9-0.8-1.9-1.9s0.8-1.9,1.9-1.9S57.9,55.8,57.9,56.8z"/>
<circle cx="71.7" cy="26.8" r="1.3"/>
<circle cx="15.7" cy="55.7" r="1.3"/>
<circle cx="70.3" cy="79.9" r="1.3"/>
<circle cx="20.8" cy="18.9" r="1.3"/>
<circle cx="85" cy="62" r="1.3"/>
<circle cx="30.4" cy="17" r="0.6"/>
<circle cx="13.6" cy="45.7" r="0.6"/>
<circle cx="13.1" cy="30.4" r="0.6"/>
<circle cx="47" cy="18.9" r="0.6"/>
<circle cx="66.9" cy="14.8" r="0.6"/>
<circle cx="85" cy="27.5" r="0.6"/>
<circle cx="71.7" cy="65.5" r="0.6"/>
<circle cx="82.7" cy="75.2" r="0.6"/>
<circle cx="79" cy="55.7" r="0.6"/>
<circle cx="52.8" cy="79.1" r="0.6"/>
<circle cx="22.2" cy="85.2" r="0.6"/>
<circle cx="36.6" cy="78.6" r="0.6"/>
<circle cx="12.5" cy="78" r="0.6"/>
</svg>
