<?xml version="1.0" encoding="utf-8"?>
<!-- Generator: Adobe Illustrator 21.0.2, SVG Export Plug-In . SVG Version: 6.00 Build 0)  -->
<svg version="1.1" id="Calque_1" xmlns="http://www.w3.org/2000/svg" xmlns:xlink="http://www.w3.org/1999/xlink" x="0px" y="0px"
	 viewBox="0 0 75 93.8" style="enable-background:new 0 0 75 93.8;" xml:space="preserve">
<g transform="scale(1 -1)">
	<g transform="translate(0 -75)">
		<g>
			<path marker-start="none" marker-end="none" d="M40.9,2.9c-0.8,1.1-1,2-1.5,2.5c-0.2,0.2-0.4,0.3-0.7,0.4C38.4,5.9,37.8,6,37,5.9
				c-0.8,0-1.3,0.9-0.7,1.6c0.1,0.2,0.3,0.2,0.4,0.3C37,8,37.8,8.2,38.3,8.3c0.3,0.1,0.6,0.2,0.9,0.2l0.3,0.1l0,0.1
				c0.1,0.2,0.2,0.5,0.2,0.8c0.1,0.4,0.2,0.9,0.3,1.2l0,0.2l0,0.1c0,0.1,0,0.1,0.1,0.2c0.4,1,1.7,0.7,1.8-0.2v-0.2l0-0.1
				c0-0.1,0.1-0.1,0.1-0.2c0.1-0.2,0.2-0.4,0.4-0.6c0.2-0.3,0.4-0.6,0.5-0.7l0.1-0.1l0.1,0c0.3,0,0.7-0.1,1.1-0.1
				c0.5-0.1,1.2-0.3,1.7-0.9c0.5-0.6,0.2-1.5-0.6-1.6c-0.1,0-0.6-0.1-1.2-0.3c-0.3-0.1-0.5-0.2-0.7-0.3C43.1,6,43,5.9,43,5.9
				c0-0.1-0.1-0.2-0.1-0.3c-0.1-0.2-0.1-0.5-0.2-0.8c-0.1-0.6-0.1-1.1-0.1-1.4C42.6,2.5,41.4,2.1,40.9,2.9z M4.2,9.5
				c0.5,4.9,8.1,14.5,11.3,18.9C10.1,38.7,13,50.3,22.1,58c2.8,2.4,7.5,3.6,10.7,4.2c5.5,1.1,11.3,0.1,16.4-2.2c0,0,0,0,0.1,0.1
				c2.7,2.7,14.4,13,21.5,12.5c3-0.2,3.6-2.5,3.2-4.7c-0.4-2.2-1.6-4.8-2.6-7.1c-1.9-4.3-6.6-10.8-9.2-14.3
				c-0.2-0.3-0.5-0.6-0.7-0.9c0.4,0,0.8-0.3,0.9-0.7c2.5-9.9-4.3-24.1-14.4-28.2c-4.1-1.8-12.5-3.3-17.7-1c-0.1,0-0.2,0.1-0.3,0.2
				c-3.7-2.9-7.1-5.3-13.1-8.9l0,0c-2.8-1.5-6-3.1-8.5-3.3C5.4,3.4,3.8,5.4,4.2,9.5z M13.8,7.4l2.2,1.1l3.1,1.9
				c6.7,4.2,9.8,6.8,16.2,12.1c7.2,6,18.4,15.9,25.5,25c2.6,3.5,7.1,9.9,9,13.9c1.1,2.4,2.2,4.8,2.5,6.7c0.3,1.7,0,2.4-1.5,2.5
				C64.8,71,54.4,62.3,51,59.1c0.6-0.3,1.2-0.7,1.8-1.1c0,0.3,0.1,0.6,0.4,0.8c0.7,0.5,3.1,2.5,5.6,4.2c2.3,1.6,5.4,3.4,7.4,3.2
				c1.9-0.3,2.6-1.8,1.7-3.4c-2.7-5.1-6-10.5-10.2-15.2c-4.8-5.3-9.2-10-14.1-15c-4.8-5-22.9-18.7-28.7-21.8
				c-0.8-0.4-1.9-0.8-2.8-0.6c-0.5,0.2-1,0.6-1.2,1.2c-0.2,0.6,0,1.2,0.2,1.9c1.3,3.8,4.5,8.3,6.9,11.3c0,0.1-0.1,0.1-0.1,0.1
				c-0.1,0.1-0.1,0.2-0.1,0.3l0,0.2l-0.1,0.1c-0.3,0.4-0.6,0.8-0.8,1.3c-3.9-5.2-10-13.3-10.5-17.3C5.7,5.9,6.8,5.4,8.2,5.5
				C9.7,5.5,11.6,6.3,13.8,7.4z M41.1,6.2l0.1,0.2c0,0.1,0.1,0.3,0.1,0.4c0,0,0.1,0.1,0.1,0.2c0.1,0.2,0.3,0.3,0.4,0.4
				c0,0,0.1,0.1,0.2,0.1l0,0c-0.1,0.1-0.1,0.1-0.2,0.2c-0.1,0.1-0.2,0.2-0.2,0.3l-0.2,0.3l0-0.1c-0.1-0.3-0.2-0.6-0.4-0.8
				c-0.1-0.1-0.2-0.2-0.3-0.3l-0.1,0l0.1,0c0.1-0.1,0.2-0.2,0.3-0.3C40.9,6.5,41,6.4,41.1,6.2L41.1,6.2z M63.3,7.9
				c-0.1,0.4-0.4,0.9-0.8,1.5c-0.2,0.3-0.4,0.6-0.6,0.9l-0.2,0.4l-0.5,0.1c-0.9,0.1-1.8,0.2-3,0.4c-0.5,0.1-0.8,0.6-0.8,1.1
				c0.1,0.4,0.3,0.7,0.5,0.8c0.3,0.2,0.7,0.4,1,0.5c0.4,0.1,0.8,0.3,1.1,0.4c1,0.3,1.3,0.5,1.4,0.5l0,0l0,0c0.1,0.1,0.2,0.3,0.3,0.5
				c0.1,0.3,0.3,0.6,0.4,1c0.2,0.6,0.6,1.6,1.3,2.1c0.4,0.3,1,0.2,1.3-0.2c0.3-0.4,0.5-1.2,0.7-1.7c0.1-0.3,0.2-0.7,0.2-1l0-0.2
				l0.4-0.1c0.2-0.1,0.3-0.1,0.5-0.2c0.7-0.2,1.3-0.4,1.4-0.4c0.4-0.1,0.7-0.4,0.7-0.7c0.1-0.5-0.1-0.9-0.3-1.2
				c-0.4-0.5-1-0.9-1.5-1.1c-0.3-0.1-0.5-0.2-0.8-0.3l-0.1,0l-0.1-0.4c-0.1-0.3-0.2-0.6-0.3-0.9c-0.2-0.7-0.5-1.5-1-2.1
				C64.4,7,63.5,7.2,63.3,7.9z M64.1,10.3l0.3,0.9c0.1,0.3,0.2,0.7,0.3,0.9c0.1,0.3,0.4,0.5,0.7,0.6c0.1,0,0.4,0.1,0.7,0.2l0.1,0
				c-0.6,0.2-1.3,0.4-1.5,0.5l0,0C64.2,13.6,64,14,64,14.4c0,0.1,0,0.3-0.1,0.5l0,0.2l-0.1-0.2c-0.1-0.2-0.1-0.4-0.2-0.5
				c-0.1-0.3-0.3-0.7-0.6-1c0,0-0.1-0.1-0.1-0.1l0,0c-0.2-0.2-0.5-0.4-0.8-0.5l-0.2-0.1l0,0c0.2,0,0.3,0,0.5-0.1
				c0.4-0.1,0.7-0.3,0.8-0.7C63.3,11.5,63.6,11.1,64.1,10.3L64.1,10.3z M12.5,12.1l0.3,0c0.2,0.1,0.6,0.2,1,0.4
				c5.6,3,23.6,16.6,28.3,21.4c4.9,5,9.3,9.6,14.1,14.9c4.1,4.5,7.3,9.7,9.9,14.8c0.3,0.5,0.2,0.6-0.3,0.6c-1.1,0.2-3.4-1.1-6-2.9
				c-2.5-1.7-4.7-3.6-5.5-4.2c-0.1-0.1-0.2-0.1-0.3-0.2c0.2-0.1,0.4-0.3,0.5-0.4c0.1,0,0.1,0,0.2,0.1c0.3,0.1,1.1,0.7,2.3,1.6
				c0.8,0.6,2.4,1.7,3.6,1.3c0.1,0,0.2-0.1,0.3-0.1c0.4-0.2,0.6-0.7,0.5-1.1l0-0.1l0-0.1c-0.6-1.4-5.7-7.1-9.3-11.1
				c-4.4-4.9-9.1-9.8-10.1-10.8c-4.6-4.5-8.8-8.2-13.6-11.7c-1.3-0.9-3-2.5-4.8-4c-1.5-1.2-3.6-2.8-5.1-2.5
				c-0.4,0.1-0.7,0.4-0.8,0.7c0,0.1,0,0.2,0,0.3c0,1.2,1.2,2.4,2.1,3.3c-0.2,0.2-0.4,0.4-0.6,0.6c-2.3-2.9-5.2-7-6.3-10.4
				C12.6,12.4,12.5,12.3,12.5,12.1z M47.2,18.4c9.2,3.7,15.6,17,13.3,26c0,0,0,0,0,0c-7.2-8.7-17.4-17.7-24.1-23.3
				c-1.8-1.5-3.4-2.8-4.8-4C36.2,15.4,43.5,16.7,47.2,18.4z M20.7,21l0.1,0.1c0,0,0,0,0.1,0c0,0,0,0,0,0L20.7,21z M27.1,26.1
				c4.8,3.4,8.8,7.1,13.4,11.6c1,1,5.6,5.9,10.1,10.7c1.8,2,3.4,3.7,4.6,5.2c0,0,0,0,0,0c-5.5,5.3-14.1,8.2-22,6.7
				c-3.3-0.6-7.5-1.8-9.9-3.8c-9.3-7.9-11.6-19.9-4.4-30.1c0.1-0.1,0.1-0.2,0.2-0.3l0-0.2l0.1-0.1c0.3-0.5,1.2-1.4,2-2.3
				c0.1,0,0.1-0.1,0.2-0.1c0.2-0.1,0.3-0.3,0.4-0.5c0.2-0.2,0.5-0.5,0.7-0.7C24,23.6,25.8,25.2,27.1,26.1z M57.2,55.9l0.8,0.9
				l-1.5-1.1c-0.1-0.1-0.3-0.2-0.4-0.3c0.1-0.1,0.3-0.3,0.4-0.4C56.7,55.4,56.9,55.6,57.2,55.9z M6.1,57.6c-0.2,0.7-0.2,1.9-0.1,2.7
				c0,0.5,0.1,1,0.1,1.4l0,0.3l-0.2,0c-0.4,0.1-0.9,0.2-1.4,0.3c-1,0.2-2.2,0.4-2.9,0.6c-0.7,0.2-0.9,1.1-0.4,1.6
				c0.5,0.5,1.6,1,2.4,1.4c0.8,0.4,1.7,0.7,2.2,0.9c0,0.1,0,0.1,0.1,0.2c0.2,0.6,0.4,1.3,0.5,2c0.2,0.8,0.3,1.6,0.5,2.2
				c0.2,0.8,1.2,1,1.7,0.3c0.8-1,1.6-2.4,2.3-3.5c0.5,0.1,1.2,0.2,1.9,0.4c0.8,0.1,1.8,0.3,2.4,0.1c0.6-0.1,0.9-0.7,0.7-1.2
				c-0.3-0.9-1.3-2.1-2-2.9l-0.2-0.2c0-0.1,0.1-0.2,0.1-0.2c0.2-0.3,0.4-0.7,0.6-1.1c0.4-0.8,1-1.8,1.2-2.7c0.1-0.7-0.6-1.3-1.3-1
				c-0.7,0.3-2.2,1-3.2,1.5l-0.4,0.2l-0.1-0.1c-0.3-0.3-0.6-0.7-1-1.3c-0.5-0.8-1.2-1.7-2-2.3C7.1,56.7,6.3,56.9,6.1,57.6z
				 M7.9,60.4L8,60.6c0.5,0.7,1.2,1.7,2,2.1c0.2,0.1,0.5,0.2,0.8,0.1c0.4-0.1,0.9-0.3,1.5-0.6l0.5-0.2l-0.1,0.1
				c-0.3,0.6-1,1.7-1.1,2.4c-0.1,0.3,0,0.7,0.3,0.9c0.3,0.3,0.8,0.8,1.2,1.3l0,0l-0.2,0c-0.8-0.1-1.6-0.3-2-0.4c0,0-0.1-0.1-0.1-0.1
				c-0.5-0.2-1-0.1-1.3,0.4c-0.3,0.6-0.7,1.3-1.2,2l-0.1,0.2l0-0.1c-0.2-0.8-0.4-1.6-0.6-2.3c-0.1-0.2-0.2-0.3-0.4-0.4
				c0-0.3-0.3-0.6-0.6-0.8c-0.3-0.1-0.9-0.3-1.6-0.6l-0.6-0.3l0.3-0.1c0.9-0.2,2.1-0.4,2.7-0.6c0.4-0.2,0.6-0.6,0.5-1
				c-0.1-0.4-0.1-1.1-0.2-1.8L7.9,60.4z"/>
		</g>
	</g>
</g>
</svg>
