<?xml version="1.0" encoding="utf-8"?>
<!-- Generator: Adobe Illustrator 21.0.2, SVG Export Plug-In . SVG Version: 6.00 Build 0)  -->
<svg version="1.1" id="Calque_1" xmlns="http://www.w3.org/2000/svg" xmlns:xlink="http://www.w3.org/1999/xlink" x="0px" y="0px"
	 viewBox="0 0 100 125" style="enable-background:new 0 0 100 125;" xml:space="preserve">
<title>Space_EXPORT</title>
<circle cx="22.6" cy="35" r="2.9"/>
<circle cx="57" cy="44.5" r="2.9"/>
<circle cx="81.7" cy="63.6" r="2.9"/>
<circle cx="41.7" cy="17.8" r="2.9"/>
<path d="M83.8,37.6c-1.6-4-7.9-5.5-17.6-4.1c1.2,1,2.2,2.2,3.2,3.5c6.4-0.6,10.2,0.4,10.8,2c0.5,1.4-0.8,3.8-3.9,6.6
	c-0.4,0.4-0.9,0.8-1.4,1.3c-0.3,0.3-0.7,0.5-1,0.8l-0.6,0.5L72.1,49l0,0l-0.9,0.6c-0.3-4.5-2.1-8.9-5.1-12.3c-0.3-0.4-0.6-0.7-1-1
	c-0.5-0.5-0.9-0.9-1.4-1.4c-0.3-0.3-0.7-0.6-1.1-0.8L62,33.8l0,0c-0.6-0.4-1.1-0.7-1.7-1l0,0c-0.9-0.5-1.8-0.9-2.8-1.3
	c-0.7-0.2-1.3-0.4-2-0.6s-1.3-0.3-2-0.4c-1.8-0.3-3.7-0.4-5.5-0.2l-0.5,0.1c-0.2,0-0.5,0.1-0.7,0.1c-0.3,0-0.7,0.1-1,0.2
	c-0.4,0.1-0.7,0.2-1.1,0.3L44,31.1c-0.7,0.2-1.3,0.5-2,0.7c-0.3,0.1-0.5,0.2-0.8,0.4s-0.4,0.2-0.6,0.3s-0.4,0.2-0.7,0.3L39.8,33
	c-0.3,0.2-0.5,0.3-0.8,0.5l0,0c-0.3,0.2-0.6,0.4-1,0.6s-0.6,0.5-0.9,0.7s-0.6,0.5-0.9,0.8h-0.1l-0.8,0.8c-0.3,0.3-0.5,0.5-0.8,0.8
	l-0.1,0.1c-0.2,0.3-0.5,0.5-0.7,0.8c-0.5,0.6-1,1.3-1.4,2c-0.1,0.2-0.3,0.5-0.4,0.7s-0.3,0.4-0.4,0.7c-0.3,0.5-0.5,1-0.7,1.5
	l-0.3,0.8c-0.1,0.3-0.2,0.6-0.3,0.9c-0.2,0.6-0.4,1.2-0.5,1.8c-0.1,0.2-0.1,0.3-0.1,0.5c0,0.1,0,0.2,0,0.3c0,0.1,0,0.2,0,0.3
	c0,0.3-0.1,0.5-0.1,0.8s-0.1,0.6-0.1,0.8s-0.1,0.7-0.1,1s0,0.7,0,1.1c0,0.2,0,0.3,0,0.5s0,0.4,0,0.6c0,0.6,0.1,1.3,0.2,1.9
	c0,0.2,0.1,0.4,0.1,0.6c0,0.2,0.1,0.4,0.1,0.6s0.1,0.6,0.2,0.9s0.1,0.6,0.2,0.8s0.1,0.4,0.2,0.6s0.1,0.3,0.1,0.4s0.1,0.4,0.2,0.5
	c0.2,0.6,0.4,1.1,0.7,1.6c0.1,0.3,0.3,0.5,0.4,0.8l0.1,0.2c0.1,0.3,0.3,0.5,0.4,0.8c0,0,0,0,0,0.1c0.1,0.2,0.3,0.5,0.4,0.7
	s0.5,0.7,0.7,1l0.6,0.8L33,64.7c-0.8,0.1-1.5,0.2-2.2,0.3l-1.2,0.1c-6.8,0.5-9.8-0.8-10.3-2.1s1.1-4.8,7.2-9.4l0,0
	c-0.1-0.8-0.1-1.6-0.1-2.4c0-0.8,0-1.5,0.1-2.2C18,54.7,14.1,60.3,15.8,64.4c1.2,3,4.9,4.6,10.9,4.6c1,0,2.1,0,3.2-0.1
	s2.5-0.2,3.9-0.4c0.8-0.1,1.6-0.3,2.4-0.4l1.3-0.3l0,0c0.1,0.1,0.2,0.1,0.3,0.2c0.3,0.2,0.5,0.4,0.8,0.6s0.6,0.4,0.8,0.5
	s0.8,0.4,1.2,0.7l0.5,0.3l0.3,0.1c0.2,0.1,0.4,0.2,0.6,0.3c0.2,0.1,0.5,0.2,0.7,0.3s0.6,0.2,0.9,0.3s0.6,0.2,0.9,0.3
	s0.5,0.2,0.8,0.2s0.8,0.2,1.3,0.3c0.3,0.1,0.5,0.1,0.8,0.1h0.2l0.9,0.1c0.3,0,0.6,0,0.8,0.1c0.3,0,0.7,0,1.1,0h1.1
	c0.3,0,0.7,0,1-0.1h0.1l0.8-0.1l0.6-0.1c0.3,0,0.5-0.1,0.8-0.2l0.5-0.1l0.6-0.2c0.1,0,0.2,0,0.2-0.1l0.8-0.3l0.9-0.3l0.7-0.3h0.1
	c0.4-0.2,0.8-0.4,1.2-0.6c0.5-0.2,1-0.5,1.4-0.8c0.3-0.2,0.5-0.3,0.8-0.5s0.5-0.3,0.7-0.5s0.4-0.3,0.6-0.4c1-0.7,1.8-1.6,2.6-2.5
	c0.2-0.2,0.4-0.5,0.6-0.7s0.4-0.5,0.6-0.8s0.4-0.5,0.6-0.8l0.3-0.4c0.3-0.4,0.6-0.9,0.8-1.3l0,0c0.2-0.3,0.3-0.6,0.5-0.9l0,0
	c0.2-0.3,0.3-0.6,0.4-0.9c0.7-1.6,1.2-3.2,1.5-4.9c0,0,0-0.1,0-0.1l1-0.7c0.7-0.5,1.4-0.9,2-1.4C81.2,47.3,85.5,42,83.8,37.6z
	 M65.3,59.4L65.3,59.4c-0.4,0.7-0.9,1.5-1.4,2.2c-0.3,0.5-0.7,0.9-1.1,1.3s-0.6,0.6-0.9,0.9c-0.2,0.2-0.3,0.3-0.5,0.4
	c-0.7,0.6-1.3,1.1-2.1,1.5l-0.6,0.3c-0.2,0.1-0.4,0.2-0.6,0.3c-0.1,0.1-0.2,0.1-0.3,0.2l-0.3,0.2c-0.3,0.1-0.5,0.2-0.8,0.3
	s-0.7,0.3-1,0.4l-0.8,0.2c-0.3,0.1-0.5,0.1-0.8,0.2C54,68,53.8,68,53.6,68c-0.2,0-0.4,0.1-0.6,0.1s-0.7,0.1-1,0.1h-0.5
	c-0.1,0-0.3,0-0.4,0h-0.8c-0.4,0-0.8,0-1.1,0h-0.3h-0.1L48,68.2c-0.7-0.1-1.4-0.2-2.2-0.4l-0.7-0.2l-0.8-0.3
	c-0.6-0.2-1.2-0.5-1.7-0.8l1.4-0.4c1.1-0.3,2.2-0.6,3.3-1l0,0c2.3-0.7,4.7-1.6,7-2.5c2.6-1,5.2-2.1,7.6-3.3l0,0c1-0.5,2.1-1,3.1-1.5
	l1.3-0.7c-0.1,0.2-0.2,0.4-0.2,0.6s-0.2,0.4-0.3,0.6C65.7,58.7,65.5,59.1,65.3,59.4z M67.1,52.3l-0.7,0.4l0,0l-0.9,0.5l-0.9,0.5
	l-0.3,0.2c-0.8,0.4-1.5,0.8-2.3,1.2l-1.4,0.7c-0.9,0.5-1.9,0.9-2.9,1.4s-2,0.9-3.1,1.3L53,59.1c-3.6,1.4-7.3,2.7-11.1,3.7
	c-0.8,0.2-1.5,0.4-2.3,0.6c-0.4,0.1-0.7,0.2-1.1,0.3c-2-1.9-3.5-4.2-4.4-6.7h16.2c1.1,0,1.9-0.9,1.9-1.9c0-1.1-0.9-1.9-1.9-1.9h-17
	c-0.1-0.6-0.1-1.3-0.1-1.9c0-0.3,0-0.5,0-0.8c0-0.1,0-0.3,0-0.4c0-0.2,0-0.3,0-0.5c0,0,0-0.1,0-0.1c0-0.3,0.1-0.5,0.1-0.8l0,0
	c0-0.2,0.1-0.5,0.1-0.7s0.1-0.3,0.1-0.5h11c1.1-0.1,1.8-1,1.8-2c-0.1-0.9-0.8-1.7-1.8-1.8h-9.5c0-0.1,0.1-0.2,0.2-0.3l0.3-0.5
	c0.1-0.2,0.2-0.3,0.3-0.5s0.2-0.4,0.4-0.6s0.4-0.6,0.6-0.9s0.3-0.3,0.4-0.5l0.1-0.2c0.1-0.2,0.3-0.3,0.5-0.5s0.4-0.4,0.6-0.6
	c0.8-0.8,1.6-1.5,2.5-2.1c0.5-0.3,0.9-0.6,1.4-0.9s1-0.5,1.5-0.7c0.2-0.1,0.4-0.2,0.6-0.2s0.6-0.2,1-0.3l0.8-0.2l0.8-0.2
	c0.4-0.1,0.8-0.1,1.2-0.2c0.2,0,0.4-0.1,0.5-0.1c0.3,0,0.5-0.1,0.8-0.1s0.7,0,1,0c9.4,0,17.1,7.7,17.1,17.1c0,0.3,0,0.6,0,0.9
	L67.1,52.3z"/>
</svg>
