<svg xmlns="http://www.w3.org/2000/svg" xmlns:xlink="http://www.w3.org/1999/xlink" viewBox="0 0 61 75" version="1.1" x="0px" y="0px"><title>42 -Solar System- (space, astronomy)</title><desc>Created with Sketch.</desc><g stroke="none" stroke-width="1" fill="none" fill-rule="evenodd"><g transform="translate(-265.000000, -862.000000)"><g transform="translate(266.000000, 863.000000)"><path d="M36,28 C36,30.761 33.761,33 31,33 C28.239,33 26,30.761 26,28 C26,25.239 28.239,23 31,23 C33.761,23 36,25.239 36,28 L36,28 Z" stroke="#000000" stroke-width="2"/><path d="M15,36 C15,38.209 13.209,40 11,40 C8.791,40 7,38.209 7,36 C7,33.791 8.791,32 11,32 C13.209,32 15,33.791 15,36 L15,36 Z" stroke="#000000" stroke-width="2"/><path d="M28,11 C28,13.209 26.209,15 24,15 C21.791,15 20,13.209 20,11 C20,8.791 21.791,7 24,7 C26.209,7 28,8.791 28,11 L28,11 Z" stroke="#000000" stroke-width="2"/><path d="M26.3066,15.252 C25.9956,15.252 25.6896,15.107 25.4946,14.837 C25.1716,14.389 25.2726,13.764 25.7216,13.44 C25.9256,13.294 26.1116,13.121 26.2756,12.927 C26.6086,12.536 27.1816,12.459 27.6046,12.749 C27.8816,12.939 28.1596,13.134 28.4386,13.332 C28.8886,13.653 28.9926,14.277 28.6726,14.727 C28.3516,15.177 27.7276,15.28 27.2776,14.961 L27.1456,14.867 C27.0626,14.935 26.9776,15.001 26.8896,15.064 C26.7136,15.19 26.5086,15.252 26.3066,15.252" fill="#000000"/><path d="M22.6855,15.7793 C22.5765,15.7793 22.4655,15.7613 22.3565,15.7233 C21.7555,15.5143 21.2065,15.1953 20.7245,14.7773 C20.3075,14.4153 20.2625,13.7833 20.6235,13.3663 C20.9855,12.9493 21.6165,12.9033 22.0345,13.2653 C22.3255,13.5183 22.6545,13.7103 23.0145,13.8353 C23.5365,14.0163 23.8115,14.5873 23.6295,15.1083 C23.4855,15.5213 23.0995,15.7793 22.6855,15.7793" fill="#000000"/><path d="M20.022,11.6182 C19.986,11.6182 19.95,11.6162 19.913,11.6122 C19.364,11.5532 18.967,11.0592 19.026,10.5112 C19.037,10.4132 19.051,10.3152 19.067,10.2172 C19.028,10.2002 18.989,10.1832 18.949,10.1672 C18.439,9.9542 18.199,9.3682 18.413,8.8582 C18.626,8.3492 19.211,8.1082 19.721,8.3212 C20.032,8.4522 20.348,8.5902 20.668,8.7362 C21.141,8.9532 21.369,9.4972 21.191,9.9862 C21.099,10.2422 21.041,10.4842 21.015,10.7252 C20.959,11.2382 20.526,11.6182 20.022,11.6182" fill="#000000"/><path d="M12.3628,8.873 C11.8768,8.873 11.4508,8.518 11.3758,8.022 C11.2928,7.477 11.6688,6.967 12.2148,6.885 C12.9078,6.778 13.6808,6.77 14.5168,6.86 C15.0658,6.919 15.4638,7.411 15.4048,7.961 C15.3458,8.51 14.8518,8.911 14.3038,8.849 C13.6508,8.778 13.0398,8.783 12.5138,8.861 C12.4638,8.869 12.4128,8.873 12.3628,8.873 M8.8318,14.197 C8.3198,14.197 7.8828,13.806 7.8368,13.285 C7.8098,12.983 7.7978,12.691 7.7978,12.409 C7.7968,11.902 7.8398,11.417 7.9258,10.968 C8.0288,10.426 8.5548,10.072 9.0938,10.172 C9.6368,10.275 9.9928,10.799 9.8898,11.341 C9.8278,11.667 9.7968,12.026 9.7978,12.408 C9.7978,12.635 9.8078,12.868 9.8288,13.109 C9.8778,13.659 9.4708,14.144 8.9208,14.193 C8.8908,14.196 8.8618,14.197 8.8318,14.197 M33.5098,19.628 C33.2768,19.628 33.0418,19.547 32.8518,19.381 C32.3368,18.931 31.8228,18.492 31.3088,18.066 C30.8838,17.714 30.8258,17.083 31.1778,16.658 C31.5308,16.233 32.1628,16.175 32.5868,16.527 C33.1128,16.965 33.6408,17.413 34.1688,17.875 C34.5848,18.238 34.6268,18.87 34.2628,19.286 C34.0658,19.513 33.7878,19.628 33.5098,19.628 M11.0008,21.002 C10.6308,21.002 10.2748,20.796 10.1008,20.441 C9.7828,19.79 9.4898,19.141 9.2328,18.511 C9.0238,17.999 9.2688,17.415 9.7798,17.206 C10.2908,16.997 10.8748,17.243 11.0838,17.753 C11.3248,18.342 11.5988,18.951 11.8978,19.562 C12.1408,20.059 11.9348,20.657 11.4388,20.9 C11.2978,20.97 11.1478,21.002 11.0008,21.002 M38.7038,24.584 C38.4418,24.584 38.1798,24.481 37.9838,24.277 C37.6138,23.894 37.2388,23.512 36.8568,23.129 L36.5548,22.827 C36.1648,22.436 36.1668,21.803 36.5578,21.413 C36.9498,21.022 37.5818,21.025 37.9728,21.417 L38.2718,21.716 C38.6628,22.107 39.0468,22.498 39.4248,22.891 C39.8078,23.288 39.7958,23.921 39.3978,24.304 C39.2038,24.491 38.9538,24.584 38.7038,24.584 M14.6648,27.174 C14.3468,27.174 14.0348,27.022 13.8408,26.741 C13.4368,26.155 13.0508,25.577 12.6848,25.004 C12.3868,24.538 12.5228,23.92 12.9878,23.622 C13.4518,23.325 14.0708,23.461 14.3688,23.926 C14.7238,24.479 15.0968,25.04 15.4878,25.606 C15.8008,26.06 15.6868,26.684 15.2318,26.997 C15.0588,27.116 14.8608,27.174 14.6648,27.174 M43.4518,29.97 C43.1588,29.97 42.8688,29.842 42.6718,29.596 C42.2548,29.076 41.8248,28.555 41.3838,28.035 C41.0258,27.614 41.0768,26.982 41.4978,26.625 C41.9208,26.269 42.5498,26.32 42.9078,26.74 C43.3618,27.275 43.8028,27.81 44.2308,28.344 C44.5768,28.774 44.5078,29.404 44.0768,29.75 C43.8928,29.897 43.6718,29.97 43.4518,29.97 M19.0568,32.851 C18.7748,32.851 18.4948,32.731 18.2968,32.501 C17.8408,31.968 17.3968,31.435 16.9668,30.903 C16.6188,30.474 16.6848,29.844 17.1138,29.496 C17.5428,29.149 18.1728,29.215 18.5208,29.644 C18.9398,30.161 19.3718,30.681 19.8168,31.2 C20.1758,31.62 20.1268,32.252 19.7068,32.61 C19.5178,32.771 19.2868,32.851 19.0568,32.851 M47.6388,35.802 C47.3068,35.802 46.9828,35.637 46.7918,35.336 C46.4418,34.78 46.0718,34.218 45.6838,33.65 C45.3728,33.194 45.4898,32.572 45.9458,32.261 C46.4018,31.948 47.0248,32.066 47.3358,32.521 C47.7378,33.11 48.1198,33.692 48.4838,34.268 C48.7788,34.735 48.6388,35.352 48.1718,35.647 C48.0058,35.752 47.8208,35.802 47.6388,35.802 M23.9598,38.097 C23.7058,38.097 23.4518,38.001 23.2578,37.809 L22.7158,37.271 C22.4048,36.96 22.0978,36.649 21.7948,36.337 C21.4098,35.94 21.4198,35.308 21.8168,34.923 C22.2128,34.538 22.8448,34.548 23.2308,34.944 C23.5268,35.249 23.8258,35.554 24.1298,35.857 L24.6618,36.385 C25.0548,36.772 25.0588,37.405 24.6718,37.799 C24.4758,37.997 24.2178,38.097 23.9598,38.097 M50.9528,42.161 C50.5538,42.161 50.1768,41.921 50.0228,41.528 C49.7908,40.941 49.5248,40.33 49.2298,39.711 C48.9918,39.213 49.2038,38.616 49.7018,38.379 C50.1988,38.141 50.7978,38.352 51.0348,38.852 C51.3498,39.511 51.6348,40.165 51.8828,40.794 C52.0858,41.309 51.8328,41.889 51.3198,42.092 C51.1988,42.139 51.0748,42.161 50.9528,42.161 M29.2938,42.902 C29.0698,42.902 28.8448,42.828 28.6588,42.675 C28.1308,42.24 27.6008,41.794 27.0708,41.333 C26.6538,40.972 26.6088,40.34 26.9708,39.923 C27.3318,39.506 27.9638,39.459 28.3818,39.823 C28.8978,40.271 29.4138,40.707 29.9288,41.13 C30.3558,41.48 30.4168,42.11 30.0668,42.537 C29.8688,42.778 29.5818,42.902 29.2938,42.902 M35.0668,47.166 C34.8788,47.166 34.6898,47.113 34.5208,47.004 C33.9508,46.632 33.3748,46.24 32.7938,45.831 C32.3428,45.513 32.2348,44.889 32.5528,44.437 C32.8708,43.986 33.4938,43.879 33.9458,44.196 C34.5068,44.592 35.0638,44.97 35.6138,45.328 C36.0758,45.63 36.2068,46.25 35.9048,46.712 C35.7138,47.006 35.3928,47.166 35.0668,47.166 M52.0088,49.157 C51.9278,49.157 51.8448,49.147 51.7618,49.126 C51.2268,48.99 50.9038,48.445 51.0398,47.91 C51.1398,47.518 51.1908,47.069 51.1908,46.578 C51.1908,46.445 51.1868,46.31 51.1798,46.173 C51.1508,45.621 51.5728,45.15 52.1248,45.12 C52.6708,45.093 53.1478,45.514 53.1768,46.065 C53.1858,46.239 53.1908,46.41 53.1908,46.578 C53.1908,47.235 53.1188,47.85 52.9778,48.404 C52.8628,48.856 52.4558,49.157 52.0088,49.157 M41.3548,50.62 C41.2218,50.62 41.0878,50.594 40.9588,50.538 C40.3378,50.269 39.6988,49.971 39.0468,49.641 C38.5538,49.392 38.3568,48.79 38.6058,48.297 C38.8548,47.804 39.4568,47.607 39.9488,47.855 C40.5648,48.166 41.1658,48.449 41.7518,48.702 C42.2588,48.921 42.4918,49.51 42.2728,50.017 C42.1098,50.394 41.7408,50.62 41.3548,50.62 M47.5778,52.191 C47.1168,52.191 46.6248,52.156 46.1158,52.087 C45.5698,52.012 45.1868,51.507 45.2608,50.96 C45.3358,50.412 45.8358,50.036 46.3878,50.104 C47.0498,50.195 47.6558,50.216 48.2008,50.162 C48.7508,50.113 49.2398,50.511 49.2928,51.061 C49.3458,51.61 48.9438,52.1 48.3938,52.152 C48.1318,52.178 47.8598,52.191 47.5778,52.191" fill="#000000"/><path d="M7.8135,36.542 L6.6945,36.046 C6.3695,35.901 6.0555,35.754 5.7525,35.605 C5.2575,35.36 5.0535,34.761 5.2975,34.266 C5.5245,33.806 6.0585,33.596 6.5315,33.767 C6.5365,33.757 6.5415,33.746 6.5465,33.736 C6.7955,33.244 7.3975,33.044 7.8905,33.297 C8.3835,33.546 8.5805,34.147 8.3305,34.641 C8.2155,34.866 8.1305,35.105 8.0775,35.348 L7.8135,36.542 Z" fill="#000000"/><path d="M13.0371,33.5586 C12.8631,33.5586 12.6861,33.5126 12.5251,33.4166 C12.1221,33.1766 11.6781,33.0376 11.2051,33.0066 C10.6541,32.9696 10.2371,32.4936 10.2741,31.9426 C10.3111,31.3916 10.7811,30.9846 11.3391,31.0106 C12.1181,31.0636 12.8831,31.3016 13.5511,31.7006 C14.0251,31.9836 14.1801,32.5966 13.8961,33.0716 C13.7091,33.3846 13.3771,33.5586 13.0371,33.5586" fill="#000000"/><path d="M15.6841,38.6963 C15.6201,38.6963 15.5541,38.6903 15.4891,38.6763 C15.1531,38.6103 14.8221,38.5433 14.4951,38.4723 L13.3341,38.2223 L13.7771,37.1223 C13.8741,36.8823 13.9391,36.6373 13.9731,36.3933 C14.0481,35.8453 14.5561,35.4593 15.1001,35.5403 C15.6471,35.6153 16.0301,36.1193 15.9551,36.6673 C15.9521,36.6883 15.9481,36.7103 15.9451,36.7313 C16.4481,36.8673 16.7671,37.3723 16.6641,37.8903 C16.5701,38.3673 16.1521,38.6963 15.6841,38.6963" fill="#000000"/><path d="M24.1105,20.2695 C23.5955,20.2695 23.1575,19.8735 23.1145,19.3515 C23.0695,18.8015 23.4785,18.3185 24.0285,18.2725 C24.7115,18.2165 25.4025,18.1685 26.1015,18.1305 C26.6605,18.0785 27.1255,18.5225 27.1555,19.0745 C27.1855,19.6245 26.7635,20.0965 26.2125,20.1265 C25.5305,20.1655 24.8575,20.2105 24.1935,20.2665 C24.1655,20.2685 24.1375,20.2695 24.1105,20.2695 M40.0405,20.2215 C39.9995,20.2215 39.9595,20.2195 39.9185,20.2145 C39.2585,20.1345 38.5875,20.0625 37.9055,19.9975 C37.3565,19.9455 36.9525,19.4575 37.0045,18.9075 C37.0575,18.3585 37.5425,17.9405 38.0945,18.0065 C38.7935,18.0725 39.4825,18.1465 40.1595,18.2285 C40.7075,18.2955 41.0975,18.7945 41.0315,19.3415 C40.9695,19.8495 40.5385,20.2215 40.0405,20.2215 M16.9995,21.2065 C16.5275,21.2065 16.1085,20.8725 16.0175,20.3925 C15.9145,19.8495 16.2715,19.3265 16.8135,19.2235 C17.4835,19.0965 18.1695,18.9805 18.8695,18.8735 C19.4115,18.7925 19.9255,19.1635 20.0095,19.7095 C20.0935,20.2555 19.7185,20.7665 19.1725,20.8495 C18.4965,20.9535 17.8335,21.0655 17.1865,21.1885 C17.1235,21.2005 17.0605,21.2065 16.9995,21.2065 M46.7315,21.8315 C46.6525,21.8315 46.5725,21.8225 46.4935,21.8025 C45.8575,21.6475 45.2025,21.5005 44.5295,21.3635 C43.9885,21.2535 43.6395,20.7255 43.7495,20.1845 C43.8605,19.6425 44.3865,19.2945 44.9295,19.4045 C45.6275,19.5455 46.3075,19.6985 46.9675,19.8595 C47.5045,19.9905 47.8335,20.5315 47.7025,21.0685 C47.5905,21.5255 47.1815,21.8315 46.7315,21.8315 M9.2505,23.0125 C8.8385,23.0125 8.4525,22.7555 8.3075,22.3445 C8.1245,21.8235 8.3985,21.2525 8.9195,21.0695 C9.5575,20.8445 10.2245,20.6295 10.9205,20.4255 C11.4505,20.2665 12.0055,20.5735 12.1615,21.1025 C12.3175,21.6325 12.0135,22.1885 11.4835,22.3435 C10.8235,22.5385 10.1885,22.7435 9.5825,22.9565 C9.4735,22.9955 9.3605,23.0125 9.2505,23.0125 M53.5095,24.1435 C53.3655,24.1435 53.2185,24.1125 53.0805,24.0455 C52.5155,23.7775 51.9055,23.5155 51.2675,23.2705 C50.7515,23.0715 50.4945,22.4935 50.6935,21.9775 C50.8915,21.4615 51.4725,21.2085 51.9855,21.4035 C52.6715,21.6675 53.3295,21.9495 53.9405,22.2415 C54.4385,22.4785 54.6505,23.0755 54.4135,23.5745 C54.2415,23.9335 53.8835,24.1435 53.5095,24.1435 M2.9625,26.3765 C2.6875,26.3765 2.4125,26.2635 2.2145,26.0405 C1.8485,25.6275 1.8855,24.9965 2.2985,24.6285 C2.8085,24.1765 3.4085,23.7345 4.0825,23.3155 C4.5515,23.0215 5.1675,23.1655 5.4595,23.6355 C5.7505,24.1045 5.6075,24.7215 5.1385,25.0125 C4.5605,25.3735 4.0515,25.7475 3.6265,26.1245 C3.4365,26.2935 3.1985,26.3765 2.9625,26.3765 M58.7775,28.7545 C58.3675,28.7545 57.9835,28.5015 57.8365,28.0935 C57.6705,27.6325 57.3745,27.1655 56.9585,26.7025 C56.5885,26.2915 56.6225,25.6605 57.0325,25.2905 C57.4425,24.9205 58.0745,24.9535 58.4445,25.3645 C59.0355,26.0195 59.4635,26.7095 59.7185,27.4155 C59.9055,27.9355 59.6365,28.5075 59.1165,28.6955 C59.0045,28.7365 58.8905,28.7545 58.7775,28.7545 M2.0395,32.6595 C1.7465,32.6595 1.4555,32.5305 1.2575,32.2835 C0.6965,31.5815 0.3185,30.8435 0.1335,30.0925 C0.0015,29.5565 0.3295,29.0145 0.8655,28.8825 C1.4005,28.7475 1.9435,29.0785 2.0755,29.6145 C2.1905,30.0825 2.4415,30.5605 2.8205,31.0355 C3.1655,31.4665 3.0945,32.0955 2.6635,32.4405 C2.4785,32.5875 2.2585,32.6595 2.0395,32.6595 M55.7405,34.6115 C55.4165,34.6115 55.0985,34.4545 54.9065,34.1645 C54.6015,33.7035 54.7275,33.0825 55.1875,32.7785 C55.7525,32.4035 56.2435,32.0145 56.6455,31.6235 C57.0415,31.2375 57.6735,31.2475 58.0595,31.6425 C58.4445,32.0385 58.4365,32.6715 58.0405,33.0565 C57.5485,33.5345 56.9605,34.0015 56.2925,34.4445 C56.1225,34.5575 55.9305,34.6115 55.7405,34.6115 M42.2005,39.0745 C41.7175,39.0745 41.2925,38.7245 41.2145,38.2325 C41.1265,37.6875 41.4985,37.1735 42.0435,37.0865 C42.7195,36.9785 43.3815,36.8615 44.0275,36.7345 C44.5725,36.6255 45.0945,36.9815 45.2015,37.5235 C45.3075,38.0655 44.9545,38.5905 44.4125,38.6975 C43.7445,38.8285 43.0595,38.9495 42.3595,39.0615 C42.3065,39.0705 42.2525,39.0745 42.2005,39.0745 M22.0395,40.9995 C22.0095,40.9995 21.9795,40.9985 21.9495,40.9965 C21.2505,40.9335 20.5625,40.8635 19.8835,40.7845 C19.3355,40.7195 18.9425,40.2235 19.0065,39.6745 C19.0715,39.1255 19.5705,38.7275 20.1165,38.7975 C20.7755,38.8745 21.4465,38.9435 22.1275,39.0035 C22.6775,39.0525 23.0835,39.5395 23.0345,40.0885 C22.9885,40.6085 22.5515,40.9995 22.0395,40.9995 M32.9985,40.1525 C32.4745,40.1525 32.0345,39.7445 32.0015,39.2135 C31.9685,38.6625 32.3885,38.1875 32.9395,38.1545 C33.6215,38.1125 34.2935,38.0625 34.9575,38.0055 C35.5205,37.9485 35.9925,38.3645 36.0405,38.9145 C36.0885,39.4655 35.6815,39.9495 35.1315,39.9975 C34.4505,40.0565 33.7595,40.1085 33.0605,40.1505 C33.0395,40.1515 33.0195,40.1525 32.9985,40.1525" fill="#000000"/><path d="M0,17 C0,17.552 0.448,18 1,18 C1.552,18 2,17.552 2,17 C2,16.448 1.552,16 1,16 C0.448,16 0,16.448 0,17" fill="#000000"/><path d="M23,50 C23,50.552 23.448,51 24,51 C24.552,51 25,50.552 25,50 C25,49.448 24.552,49 24,49 C23.448,49 23,49.448 23,50" fill="#000000"/><path d="M38,11 C38,11.552 38.448,12 39,12 C39.552,12 40,11.552 40,11 C40,10.448 39.552,10 39,10 C38.448,10 38,10.448 38,11" fill="#000000"/><polygon stroke="#000000" stroke-width="2" stroke-linecap="round" points="53 8 56 5 53 2 50 5"/><path d="M53,2 L53,0" stroke="#000000" stroke-width="2" stroke-linecap="round"/><path d="M50,5 L48,5" stroke="#000000" stroke-width="2" stroke-linecap="round"/><path d="M53,8 L53,10" stroke="#000000" stroke-width="2" stroke-linecap="round"/><path d="M56,5 L58,5" stroke="#000000" stroke-width="2" stroke-linecap="round"/><path d="M0,54 C2.211,54 4,52.211 4,50 C4,52.211 5.789,54 8,54 C5.789,54 4,55.789 4,58 C4,55.789 2.211,54 0,54 L0,54 Z" stroke="#000000" stroke-width="2" stroke-linecap="round" stroke-linejoin="round"/></g></g></g><text x="0" y="75" fill="#000000" font-size="5px" font-weight="bold" font-family="'Helvetica Neue', Helvetica, Arial-Unicode, Arial, Sans-serif">Created by Oliviu Stoian</text><text x="0" y="80" fill="#000000" font-size="5px" font-weight="bold" font-family="'Helvetica Neue', Helvetica, Arial-Unicode, Arial, Sans-serif">from the Noun Project</text></svg>