<?xml version="1.0" encoding="utf-8"?>
<!-- Generator: Adobe Illustrator 21.0.2, SVG Export Plug-In . SVG Version: 6.00 Build 0)  -->
<svg version="1.1" xmlns="http://www.w3.org/2000/svg" xmlns:xlink="http://www.w3.org/1999/xlink" x="0px" y="0px"
	 viewBox="0 0 60 60" style="enable-background:new 0 0 60 60;" xml:space="preserve">
<style type="text/css">
	.st0{fill:url(#SVGID_1_);}
	.st1{fill:url(#SVGID_2_);}
	.st2{fill:url(#SVGID_3_);}
	.st3{fill:url(#SVGID_4_);}
	.st4{fill:#110628;}
	.st5{fill:url(#SVGID_5_);}
	.st6{fill:#FFFFFF;}
	.st7{fill:#FFFFFF;stroke:#FFFFFF;stroke-width:0.4478;stroke-miterlimit:10;}
	.st8{fill:#FFFFFF;stroke:#FFFFFF;stroke-width:0.2986;stroke-miterlimit:10;}
	.st9{fill:none;stroke:#FFFFFF;stroke-width:1.7913;stroke-linecap:round;stroke-miterlimit:10;stroke-dasharray:2.3884;}
	.st10{fill:#FFFFFF;stroke:#FFFFFF;stroke-width:0.5971;stroke-miterlimit:10;}
	.st11{fill:#FFFFFF;stroke:#FFFFFF;stroke-width:1.066;stroke-miterlimit:10;}
	.st12{fill:none;stroke:#FFFFFF;stroke-width:1.1942;}
	.st13{fill:none;stroke:#FFFFFF;stroke-width:1.7913;}
	.st14{fill:#FFFFFF;stroke:#FFFFFF;stroke-width:0.2986;}
	.st15{fill:#FFFFFF;stroke:#FFFFFF;stroke-width:0.5971;}
	.st16{fill:none;stroke:#FFFFFF;stroke-width:1.7913;stroke-linecap:round;}
	.st17{fill:none;stroke:#FFFFFF;stroke-width:1.7913;stroke-linecap:round;stroke-linejoin:round;}
	.st18{fill:none;stroke:#FFFFFF;stroke-width:3;stroke-linecap:round;stroke-linejoin:round;stroke-miterlimit:10;}
	.st19{fill:none;stroke:#FFFFFF;stroke-width:4;stroke-linecap:round;stroke-linejoin:round;stroke-miterlimit:10;}
	.st20{fill:#FFFFFF;stroke:#FFFFFF;stroke-width:0.75;stroke-miterlimit:10;}
	.st21{fill:none;stroke:#FFFFFF;stroke-width:0.9677;}
	.st22{fill:none;stroke:#FFFFFF;stroke-width:1.4516;}
	.st23{fill:#FFFFFF;stroke:#FFFFFF;stroke-width:0.2419;}
	.st24{fill:#FFFFFF;stroke:#FFFFFF;stroke-width:0.4839;}
	.st25{fill:none;stroke:#FFFFFF;stroke-width:1.4516;stroke-linecap:round;}
	.st26{fill:none;stroke:#FFFFFF;stroke-width:1.4516;stroke-linecap:round;stroke-linejoin:round;}
	.st27{fill:#FFFFFF;stroke:#FFFFFF;stroke-width:1.5819;stroke-miterlimit:10;}
	.st28{opacity:0.5;fill:#FFFFFF;}
	.st29{fill:url(#SVGID_6_);}
	.st30{fill:url(#SVGID_7_);}
	.st31{fill:url(#SVGID_8_);}
	.st32{fill:url(#SVGID_9_);}
	.st33{fill:url(#SVGID_10_);}
	.st34{fill:url(#SVGID_11_);}
	.st35{fill:url(#SVGID_12_);}
	.st36{fill:url(#SVGID_13_);}
	.st37{fill:url(#SVGID_14_);}
	.st38{fill:url(#SVGID_15_);}
	.st39{fill:url(#SVGID_16_);}
	.st40{fill:url(#SVGID_17_);}
	.st41{fill:url(#SVGID_18_);}
	.st42{fill:url(#SVGID_19_);}
	.st43{fill:url(#SVGID_20_);}
	.st44{fill:url(#SVGID_21_);}
	.st45{fill:url(#SVGID_22_);}
	.st46{fill:url(#SVGID_23_);}
	.st47{fill:url(#SVGID_24_);}
	.st48{fill:#FEFDFF;}
</style>
<g id="fond">
</g>
<g id="pointillé">
</g>
<g id="invaders">
	<g>
		<path class="st7" d="M31.6,52.1c-0.4,0-0.9,0-1.3,0c-0.3,0-0.6-0.3-0.6-0.7c0-0.3,0.3-0.6,0.7-0.6c0.8,0,1.6,0,2.5,0
			c0.4,0,0.6,0.2,0.7,0.6c0,0.3-0.2,0.6-0.6,0.7C32.5,52.1,32,52.1,31.6,52.1z"/>
		<path class="st7" d="M27.8,51.7c0,0-0.1,0-0.1,0c-0.9-0.2-1.7-0.4-2.5-0.6c-0.3-0.1-0.5-0.5-0.4-0.8c0.1-0.3,0.5-0.5,0.8-0.4
			c0.8,0.2,1.6,0.4,2.4,0.6c0.3,0.1,0.6,0.4,0.5,0.7C28.4,51.5,28.1,51.7,27.8,51.7z"/>
		<path class="st7" d="M23,50.2c-0.1,0-0.2,0-0.3-0.1c-0.8-0.4-1.6-0.8-2.3-1.2c-0.3-0.2-0.4-0.6-0.2-0.9c0.2-0.3,0.6-0.4,0.9-0.2
			c0.7,0.4,1.4,0.8,2.2,1.2c0.3,0.1,0.5,0.5,0.3,0.8C23.5,50.1,23.2,50.2,23,50.2z"/>
		<path class="st7" d="M18.7,47.5c-0.1,0-0.3,0-0.4-0.1c-0.7-0.5-1.3-1.1-1.9-1.8c-0.2-0.3-0.2-0.7,0-0.9c0.3-0.2,0.7-0.2,0.9,0
			c0.6,0.6,1.2,1.1,1.8,1.7c0.3,0.2,0.3,0.6,0.1,0.9C19,47.5,18.9,47.5,18.7,47.5z"/>
		<path class="st7" d="M15.2,43.9c-0.2,0-0.4-0.1-0.5-0.3c-0.5-0.7-1-1.4-1.4-2.2c-0.2-0.3-0.1-0.7,0.2-0.9c0.3-0.2,0.7-0.1,0.9,0.2
			c0.4,0.7,0.9,1.4,1.3,2.1c0.2,0.3,0.2,0.7-0.1,0.9C15.4,43.9,15.3,43.9,15.2,43.9z"/>
		<path class="st7" d="M48,43.9c-0.1,0-0.3,0-0.4-0.1c-0.3-0.2-0.3-0.6-0.1-0.9c0.5-0.7,0.9-1.4,1.3-2.1c0.2-0.3,0.6-0.4,0.9-0.2
			c0.3,0.2,0.4,0.6,0.2,0.9c-0.4,0.8-0.9,1.5-1.4,2.2C48.4,43.8,48.2,43.9,48,43.9z"/>
		<path class="st7" d="M50.5,39.5c-0.1,0-0.2,0-0.2,0c-0.3-0.1-0.5-0.5-0.3-0.8c0.3-0.8,0.6-1.5,0.8-2.3c0.1-0.3,0.4-0.5,0.8-0.5
			c0.3,0.1,0.5,0.4,0.5,0.8c-0.2,0.8-0.5,1.7-0.8,2.5C51,39.3,50.7,39.5,50.5,39.5z"/>
		<path class="st7" d="M51.8,34.6C51.7,34.6,51.7,34.5,51.8,34.6c-0.4,0-0.7-0.4-0.6-0.7c0.1-0.8,0.2-1.6,0.2-2.5v-0.1
			c0-0.3,0.3-0.6,0.6-0.6c0.3,0,0.6,0.3,0.6,0.6l0,0.1c0,0.9-0.1,1.8-0.2,2.6C52.4,34.3,52.1,34.6,51.8,34.6z"/>
		<path class="st7" d="M51.8,29.4c-0.3,0-0.6-0.2-0.6-0.6c-0.1-0.8-0.3-1.6-0.5-2.4c-0.1-0.3,0.1-0.7,0.4-0.8
			c0.3-0.1,0.7,0.1,0.8,0.4c0.2,0.8,0.4,1.7,0.5,2.6C52.4,29,52.2,29.4,51.8,29.4C51.8,29.4,51.8,29.4,51.8,29.4z"/>
		<path class="st8" d="M12.7,24.6c-0.1,0-0.2,0-0.2,0c-0.3-0.1-0.5-0.5-0.4-0.8c0.3-0.8,0.7-1.6,1.1-2.4c0.2-0.3,0.6-0.4,0.9-0.2
			c0.3,0.2,0.4,0.6,0.2,0.9c-0.4,0.7-0.8,1.5-1.1,2.2C13.1,24.5,12.9,24.6,12.7,24.6z"/>
		<path class="st8" d="M15.1,20.2c-0.1,0-0.3,0-0.4-0.1c-0.3-0.2-0.3-0.6-0.1-0.9c0.5-0.7,1.1-1.4,1.7-2c0.2-0.3,0.6-0.3,0.9,0
			c0.3,0.2,0.3,0.6,0,0.9c-0.6,0.6-1.1,1.2-1.6,1.9C15.5,20.1,15.3,20.2,15.1,20.2z"/>
		<path class="st7" d="M18.6,16.5c-0.2,0-0.4-0.1-0.5-0.2c-0.2-0.3-0.2-0.7,0.1-0.9c0.7-0.5,1.4-1.1,2.1-1.5
			c0.3-0.2,0.7-0.1,0.9,0.2c0.2,0.3,0.1,0.7-0.2,0.9c-0.7,0.4-1.4,0.9-2,1.4C18.9,16.5,18.8,16.5,18.6,16.5z"/>
		<path class="st7" d="M22.9,13.9c-0.2,0-0.5-0.1-0.6-0.4c-0.1-0.3,0-0.7,0.3-0.8c0.8-0.4,1.6-0.7,2.4-1c0.3-0.1,0.7,0.1,0.8,0.4
			c0.1,0.3-0.1,0.7-0.4,0.8c-0.8,0.3-1.5,0.6-2.3,0.9C23.1,13.8,23,13.9,22.9,13.9z"/>
		<path class="st7" d="M40.1,13.8c-0.1,0-0.2,0-0.3-0.1c-0.7-0.3-1.5-0.6-2.3-0.9c-0.3-0.1-0.5-0.5-0.4-0.8c0.1-0.3,0.5-0.5,0.8-0.4
			c0.8,0.3,1.7,0.6,2.4,0.9c0.3,0.1,0.5,0.5,0.3,0.8C40.6,13.7,40.4,13.8,40.1,13.8z"/>
		<path class="st7" d="M27.7,12.3c-0.3,0-0.6-0.2-0.6-0.5c-0.1-0.3,0.2-0.7,0.5-0.7c0.9-0.2,1.7-0.3,2.6-0.3c0.4,0,0.6,0.2,0.7,0.6
			c0,0.3-0.2,0.6-0.6,0.7c-0.8,0.1-1.6,0.2-2.4,0.3C27.8,12.3,27.8,12.3,27.7,12.3z"/>
		<path class="st7" d="M35.3,12.3c0,0-0.1,0-0.1,0c-0.8-0.1-1.6-0.2-2.4-0.3c-0.3,0-0.6-0.3-0.6-0.7c0-0.3,0.3-0.6,0.7-0.6
			c0.9,0.1,1.7,0.2,2.6,0.3c0.3,0.1,0.6,0.4,0.5,0.7C35.9,12.1,35.6,12.3,35.3,12.3z"/>
		<ellipse class="st9" cx="31.6" cy="29" rx="14.6" ry="14.4"/>
		<path class="st8" d="M31.6,40.3c-5,0-9-4-9-8.9c0-4.9,4-8.9,9-8.9c5,0,9,4,9,8.9C40.6,36.3,36.5,40.3,31.6,40.3z M31.6,23.8
			c-4.3,0-7.7,3.4-7.7,7.6c0,4.2,3.5,7.6,7.7,7.6c4.3,0,7.7-3.4,7.7-7.6C39.3,27.2,35.8,23.8,31.6,23.8z"/>
		<path class="st7" d="M35.4,51.7c-0.3,0-0.6-0.2-0.6-0.5c-0.1-0.3,0.2-0.7,0.5-0.7c0.8-0.1,1.6-0.4,2.4-0.6
			c0.3-0.1,0.7,0.1,0.8,0.4c0.1,0.3-0.1,0.7-0.4,0.8c-0.8,0.3-1.7,0.5-2.5,0.6C35.5,51.7,35.4,51.7,35.4,51.7z"/>
		<path class="st7" d="M44.5,47.5c-0.2,0-0.4-0.1-0.5-0.2c-0.2-0.3-0.2-0.7,0.1-0.9c0.6-0.5,1.2-1.1,1.8-1.7c0.2-0.3,0.6-0.3,0.9,0
			c0.3,0.2,0.3,0.6,0,0.9c-0.6,0.6-1.2,1.2-1.9,1.8C44.8,47.5,44.6,47.5,44.5,47.5z"/>
		<path class="st7" d="M41.4,53.3c-2.1,0-3.9-1.7-3.9-3.9c0-2.1,1.7-3.9,3.9-3.9c2.1,0,3.9,1.7,3.9,3.9
			C45.3,51.6,43.6,53.3,41.4,53.3z M41.4,46.9c-1.4,0-2.5,1.1-2.5,2.5c0,1.4,1.1,2.5,2.5,2.5s2.5-1.1,2.5-2.5
			C44,48.1,42.8,46.9,41.4,46.9z"/>
		<path class="st7" d="M14.7,32.6c0-1.8-1.1-3.2-2.7-3.8c0.1-0.8,0.2-1.5,0.4-2.3c0.1-0.3-0.1-0.7-0.5-0.8c-0.3-0.1-0.7,0.1-0.8,0.5
			c-0.2,0.8-0.3,1.6-0.5,2.4c0,0-0.1,0-0.1,0c-2.2,0-4,1.8-4,4s1.8,4,4,4c0.2,0,0.4,0,0.6-0.1c0.2,0.8,0.5,1.7,0.8,2.5
			c0.1,0.2,0.3,0.4,0.6,0.4c0.1,0,0.2,0,0.2,0c0.3-0.1,0.5-0.5,0.3-0.8c-0.3-0.8-0.6-1.5-0.8-2.3c0,0,0,0,0,0
			C13.8,35.6,14.7,34.2,14.7,32.6z M10.7,35.4c-1.5,0-2.8-1.2-2.8-2.8c0-1.5,1.2-2.8,2.8-2.8s2.8,1.2,2.8,2.8
			C13.5,34.2,12.2,35.4,10.7,35.4z"/>
		<path class="st7" d="M49.9,21.3c0,0-0.1-0.1-0.1-0.1c1-0.7,1.6-1.8,1.6-3.1c0-2.2-1.8-3.9-3.9-3.9c-1.1,0-2,0.4-2.7,1.1
			c-0.6-0.5-1.3-1-2-1.4c-0.3-0.2-0.7-0.1-0.9,0.2c-0.2,0.3-0.1,0.7,0.2,0.9c0.7,0.4,1.3,0.9,1.9,1.4c-0.3,0.5-0.4,1.1-0.4,1.8
			c0,2.2,1.8,3.9,3.9,3.9c0.4,0,0.9-0.1,1.3-0.2c0,0.1,0,0.1,0.1,0.2c0.4,0.7,0.8,1.5,1.1,2.2c0.1,0.2,0.3,0.4,0.6,0.4
			c0.1,0,0.2,0,0.2,0c0.3-0.1,0.5-0.5,0.3-0.8C50.7,22.8,50.3,22,49.9,21.3z M44.8,18.1c0-1.5,1.2-2.6,2.6-2.6
			c1.5,0,2.6,1.2,2.6,2.6c0,1.5-1.2,2.6-2.6,2.6C46,20.7,44.8,19.5,44.8,18.1z"/>
	</g>
</g>
<g id="play">
</g>
</svg>
