<?xml version="1.0" encoding="utf-8"?>
<!-- Generator: Adobe Illustrator 21.0.2, SVG Export Plug-In . SVG Version: 6.00 Build 0)  -->
<svg version="1.1" xmlns="http://www.w3.org/2000/svg" xmlns:xlink="http://www.w3.org/1999/xlink" x="0px" y="0px"
	 viewBox="0 0 73 74" style="enable-background:new 0 0 73 74;" xml:space="preserve">
<style type="text/css">
	.st0{fill:url(#SVGID_1_);}
	.st1{fill:url(#SVGID_2_);}
	.st2{fill:url(#SVGID_3_);}
	.st3{fill:url(#SVGID_4_);}
	.st4{fill:#110628;}
	.st5{fill:url(#SVGID_5_);}
	.st6{fill:#FFFFFF;}
	.st7{fill:#FFFFFF;stroke:#FFFFFF;stroke-width:0.4478;stroke-miterlimit:10;}
	.st8{fill:#FFFFFF;stroke:#FFFFFF;stroke-width:0.2986;stroke-miterlimit:10;}
	.st9{fill:none;stroke:#FFFFFF;stroke-width:1.7913;stroke-linecap:round;stroke-miterlimit:10;stroke-dasharray:2.3884;}
	.st10{fill:#FFFFFF;stroke:#FFFFFF;stroke-width:0.5971;stroke-miterlimit:10;}
	.st11{fill:#FFFFFF;stroke:#FFFFFF;stroke-width:1.066;stroke-miterlimit:10;}
	.st12{fill:none;stroke:#FFFFFF;stroke-width:1.1942;}
	.st13{fill:none;stroke:#FFFFFF;stroke-width:1.7913;}
	.st14{fill:#FFFFFF;stroke:#FFFFFF;stroke-width:0.2986;}
	.st15{fill:#FFFFFF;stroke:#FFFFFF;stroke-width:0.5971;}
	.st16{fill:none;stroke:#FFFFFF;stroke-width:1.7913;stroke-linecap:round;}
	.st17{fill:none;stroke:#FFFFFF;stroke-width:1.7913;stroke-linecap:round;stroke-linejoin:round;}
	.st18{fill:none;stroke:#FFFFFF;stroke-width:3;stroke-linecap:round;stroke-linejoin:round;stroke-miterlimit:10;}
	.st19{fill:none;stroke:#FFFFFF;stroke-width:4;stroke-linecap:round;stroke-linejoin:round;stroke-miterlimit:10;}
	.st20{fill:#FFFFFF;stroke:#FFFFFF;stroke-width:0.75;stroke-miterlimit:10;}
	.st21{fill:none;stroke:#FFFFFF;stroke-width:0.9677;}
	.st22{fill:none;stroke:#FFFFFF;stroke-width:1.4516;}
	.st23{fill:#FFFFFF;stroke:#FFFFFF;stroke-width:0.2419;}
	.st24{fill:#FFFFFF;stroke:#FFFFFF;stroke-width:0.4839;}
	.st25{fill:none;stroke:#FFFFFF;stroke-width:1.4516;stroke-linecap:round;}
	.st26{fill:none;stroke:#FFFFFF;stroke-width:1.4516;stroke-linecap:round;stroke-linejoin:round;}
	.st27{fill:#FFFFFF;stroke:#FFFFFF;stroke-width:1.5819;stroke-miterlimit:10;}
	.st28{opacity:0.5;fill:#FFFFFF;}
	.st29{fill:url(#SVGID_6_);}
	.st30{fill:url(#SVGID_7_);}
	.st31{fill:url(#SVGID_8_);}
	.st32{fill:url(#SVGID_9_);}
	.st33{fill:url(#SVGID_10_);}
	.st34{fill:url(#SVGID_11_);}
	.st35{fill:url(#SVGID_12_);}
	.st36{fill:url(#SVGID_13_);}
	.st37{fill:url(#SVGID_14_);}
	.st38{fill:url(#SVGID_15_);}
	.st39{fill:url(#SVGID_16_);}
	.st40{fill:url(#SVGID_17_);}
	.st41{fill:url(#SVGID_18_);}
	.st42{fill:url(#SVGID_19_);}
	.st43{fill:url(#SVGID_20_);}
	.st44{fill:url(#SVGID_21_);}
	.st45{fill:url(#SVGID_22_);}
	.st46{fill:url(#SVGID_23_);}
	.st47{fill:url(#SVGID_24_);}
	.st48{fill:#FEFDFF;}
</style>
<g id="fond">
</g>
<g id="pointillé">
</g>
<g id="invaders">
	<g>
		<path class="st21" d="M42.8,36c0,2.9-2.4,5.3-5.3,5.3c-2.9,0-5.3-2.4-5.3-5.3c0-2.9,2.4-5.3,5.3-5.3C40.4,30.7,42.8,33,42.8,36
			L42.8,36z"/>
		<path class="st22" d="M20.5,44.4c0,2.3-1.9,4.2-4.2,4.2S12,46.8,12,44.4c0-2.3,1.9-4.2,4.2-4.2S20.5,42.1,20.5,44.4L20.5,44.4z"/>
		<path class="st22" d="M34.3,17.9c0,2.3-1.9,4.2-4.2,4.2s-4.2-1.9-4.2-4.2s1.9-4.2,4.2-4.2S34.3,15.6,34.3,17.9L34.3,17.9z"/>
		<path class="st6" d="M32.5,22.4c-0.3,0-0.7-0.2-0.9-0.4c-0.3-0.5-0.2-1.1,0.2-1.5c0.2-0.2,0.4-0.3,0.6-0.5c0.4-0.4,1-0.5,1.4-0.2
			c0.3,0.2,0.6,0.4,0.9,0.6c0.5,0.3,0.6,1,0.2,1.5c-0.3,0.5-1,0.6-1.5,0.2L33.4,22c-0.1,0.1-0.2,0.1-0.3,0.2
			C32.9,22.4,32.7,22.4,32.5,22.4"/>
		<path class="st6" d="M28.7,23c-0.1,0-0.2,0-0.3-0.1c-0.6-0.2-1.2-0.6-1.7-1c-0.4-0.4-0.5-1.1-0.1-1.5c0.4-0.4,1.1-0.5,1.5-0.1
			c0.3,0.3,0.7,0.5,1,0.6c0.6,0.2,0.8,0.8,0.7,1.3C29.5,22.7,29.1,23,28.7,23"/>
		<path class="st6" d="M25.8,18.6c0,0-0.1,0-0.1,0c-0.6-0.1-1-0.6-0.9-1.2c0-0.1,0-0.2,0-0.3c0,0-0.1,0-0.1-0.1
			c-0.5-0.2-0.8-0.8-0.6-1.4c0.2-0.5,0.8-0.8,1.4-0.6c0.3,0.1,0.7,0.3,1,0.4c0.5,0.2,0.7,0.8,0.6,1.3c-0.1,0.3-0.2,0.5-0.2,0.8
			C26.8,18.2,26.4,18.6,25.8,18.6"/>
		<path class="st23" d="M17.7,15.7c-0.5,0-1-0.4-1-0.9c-0.1-0.6,0.3-1.1,0.9-1.2c0.7-0.1,1.6-0.1,2.4,0c0.6,0.1,1,0.6,0.9,1.2
			c-0.1,0.6-0.6,1-1.2,0.9c-0.7-0.1-1.3-0.1-1.9,0C17.8,15.7,17.8,15.7,17.7,15.7 M14,21.3c-0.5,0-1-0.4-1.1-1c0-0.3,0-0.6,0-0.9
			c0-0.5,0-1.1,0.1-1.5c0.1-0.6,0.7-1,1.2-0.8c0.6,0.1,1,0.7,0.8,1.2C15,18.6,15,19,15,19.4c0,0.2,0,0.5,0,0.7
			C15.1,20.8,14.7,21.3,14,21.3C14,21.3,14,21.3,14,21.3 M40.1,27.1c-0.2,0-0.5-0.1-0.7-0.3c-0.5-0.5-1.1-0.9-1.6-1.4
			c-0.5-0.4-0.5-1-0.1-1.5c0.4-0.5,1-0.5,1.5-0.1c0.6,0.5,1.1,0.9,1.7,1.4c0.4,0.4,0.5,1.1,0.1,1.5C40.7,27,40.4,27.1,40.1,27.1
			 M16.3,28.5c-0.4,0-0.8-0.2-1-0.6c-0.3-0.7-0.6-1.4-0.9-2c-0.2-0.5,0-1.2,0.6-1.4c0.5-0.2,1.2,0,1.4,0.6c0.3,0.6,0.5,1.3,0.9,1.9
			c0.3,0.5,0,1.2-0.5,1.4C16.6,28.5,16.4,28.5,16.3,28.5 M45.7,32.3c-0.3,0-0.6-0.1-0.8-0.3c-0.4-0.4-0.8-0.8-1.2-1.2l-0.3-0.3
			c-0.4-0.4-0.4-1.1,0-1.5c0.4-0.4,1.1-0.4,1.5,0l0.3,0.3c0.4,0.4,0.8,0.8,1.2,1.2c0.4,0.4,0.4,1.1,0,1.5
			C46.2,32.2,45.9,32.3,45.7,32.3 M20.2,35.1c-0.3,0-0.7-0.2-0.9-0.5c-0.4-0.6-0.8-1.2-1.2-1.8c-0.3-0.5-0.2-1.1,0.3-1.5
			c0.5-0.3,1.1-0.2,1.5,0.3c0.4,0.6,0.8,1.2,1.2,1.8c0.3,0.5,0.2,1.1-0.3,1.5C20.6,35,20.4,35.1,20.2,35.1 M50.7,38
			c-0.3,0-0.6-0.1-0.8-0.4c-0.4-0.6-0.9-1.1-1.4-1.7c-0.4-0.4-0.3-1.1,0.1-1.5c0.4-0.4,1.1-0.3,1.5,0.1c0.5,0.6,0.9,1.1,1.4,1.7
			c0.4,0.5,0.3,1.1-0.2,1.5C51.2,38,50.9,38,50.7,38 M24.8,41.1c-0.3,0-0.6-0.1-0.8-0.4c-0.5-0.6-1-1.1-1.4-1.7
			c-0.4-0.5-0.3-1.1,0.2-1.5c0.5-0.4,1.1-0.3,1.5,0.2c0.4,0.5,0.9,1.1,1.4,1.6c0.4,0.4,0.3,1.1-0.1,1.5C25.3,41,25.1,41.1,24.8,41.1
			 M55.1,44.2c-0.4,0-0.7-0.2-0.9-0.5c-0.4-0.6-0.8-1.2-1.2-1.8c-0.3-0.5-0.2-1.1,0.3-1.5c0.5-0.3,1.1-0.2,1.5,0.3
			c0.4,0.6,0.8,1.2,1.2,1.9c0.3,0.5,0.2,1.1-0.3,1.5C55.5,44.2,55.3,44.2,55.1,44.2 M30,46.7c-0.3,0-0.5-0.1-0.7-0.3l-0.6-0.6
			c-0.3-0.3-0.7-0.7-1-1c-0.4-0.4-0.4-1.1,0-1.5c0.4-0.4,1.1-0.4,1.5,0c0.3,0.3,0.6,0.6,1,1l0.6,0.6c0.4,0.4,0.4,1.1,0,1.5
			C30.6,46.6,30.3,46.7,30,46.7 M58.6,51c-0.4,0-0.8-0.3-1-0.7c-0.2-0.6-0.5-1.3-0.8-1.9c-0.3-0.5,0-1.2,0.5-1.4
			c0.5-0.3,1.2,0,1.4,0.5c0.3,0.7,0.6,1.4,0.9,2.1c0.2,0.5-0.1,1.2-0.6,1.4C58.9,51,58.8,51,58.6,51 M35.7,51.8
			c-0.2,0-0.5-0.1-0.7-0.2c-0.6-0.5-1.1-0.9-1.7-1.4c-0.4-0.4-0.5-1.1-0.1-1.5c0.4-0.4,1.1-0.5,1.5-0.1c0.5,0.5,1.1,0.9,1.6,1.4
			c0.5,0.4,0.5,1,0.1,1.5C36.3,51.6,36,51.8,35.7,51.8 M41.8,56.3c-0.2,0-0.4-0.1-0.6-0.2c-0.6-0.4-1.2-0.8-1.8-1.2
			c-0.5-0.3-0.6-1-0.3-1.5c0.3-0.5,1-0.6,1.5-0.3c0.6,0.4,1.2,0.8,1.8,1.2c0.5,0.3,0.6,1,0.3,1.5C42.5,56.1,42.1,56.3,41.8,56.3
			 M59.8,58.4c-0.1,0-0.2,0-0.3,0c-0.6-0.1-0.9-0.7-0.8-1.3c0.1-0.4,0.2-0.9,0.2-1.4c0-0.1,0-0.3,0-0.4c0-0.6,0.4-1.1,1-1.1
			c0.6,0,1.1,0.4,1.1,1c0,0.2,0,0.4,0,0.5c0,0.7-0.1,1.3-0.2,1.9C60.7,58.1,60.2,58.4,59.8,58.4 M48.5,59.9c-0.1,0-0.3,0-0.4-0.1
			c-0.7-0.3-1.3-0.6-2-1c-0.5-0.3-0.7-0.9-0.5-1.4s0.9-0.7,1.4-0.5c0.7,0.3,1.3,0.6,1.9,0.9c0.5,0.2,0.8,0.9,0.6,1.4
			C49.3,59.7,48.9,59.9,48.5,59.9 M55.1,61.6c-0.5,0-1,0-1.6-0.1c-0.6-0.1-1-0.6-0.9-1.2c0.1-0.6,0.6-1,1.2-0.9
			c0.7,0.1,1.3,0.1,1.9,0.1c0.6-0.1,1.1,0.4,1.2,1c0.1,0.6-0.4,1.1-1,1.2C55.7,61.6,55.4,61.6,55.1,61.6"/>
		<path class="st24" d="M12.9,45l-1.2-0.5c-0.3-0.2-0.7-0.3-1-0.5c-0.5-0.3-0.7-0.9-0.5-1.4c0.2-0.5,0.8-0.7,1.3-0.5c0,0,0,0,0,0
			c0.3-0.5,0.9-0.7,1.4-0.5c0.5,0.3,0.7,0.9,0.5,1.4c-0.1,0.2-0.2,0.5-0.3,0.7L12.9,45z"/>
		<path class="st24" d="M18.4,41.9c-0.2,0-0.4,0-0.5-0.2c-0.4-0.3-0.9-0.4-1.4-0.4c-0.6,0-1-0.5-1-1.1c0-0.6,0.5-1,1.1-1
			c0.8,0.1,1.6,0.3,2.3,0.7c0.5,0.3,0.7,1,0.4,1.5C19.2,41.7,18.8,41.9,18.4,41.9"/>
		<path class="st24" d="M21.2,47.3c-0.1,0-0.1,0-0.2,0c-0.4-0.1-0.7-0.1-1.1-0.2l-1.2-0.3l0.5-1.2c0.1-0.3,0.2-0.5,0.2-0.8
			c0.1-0.6,0.6-1,1.2-0.9c0.6,0.1,1,0.6,0.9,1.2c0,0,0,0,0,0.1c0.5,0.1,0.9,0.7,0.8,1.2C22.2,47,21.7,47.3,21.2,47.3"/>
		<path class="st23" d="M30.2,27.8c-0.5,0-1-0.4-1.1-1c0-0.6,0.4-1.1,1-1.1c0.7-0.1,1.5-0.1,2.2-0.2c0.6-0.1,1.1,0.4,1.1,1
			c0,0.6-0.4,1.1-1,1.1C31.7,27.7,31,27.7,30.2,27.8C30.2,27.8,30.2,27.8,30.2,27.8 M47.1,27.7c0,0-0.1,0-0.1,0
			c-0.7-0.1-1.4-0.2-2.1-0.2c-0.6-0.1-1-0.6-1-1.2c0.1-0.6,0.6-1,1.2-1c0.7,0.1,1.5,0.1,2.2,0.2c0.6,0.1,1,0.6,0.9,1.2
			C48.1,27.3,47.6,27.7,47.1,27.7 M22.6,28.8c-0.5,0-0.9-0.4-1-0.9c-0.1-0.6,0.3-1.1,0.8-1.2c0.7-0.1,1.4-0.3,2.2-0.4
			c0.6-0.1,1.1,0.3,1.2,0.9c0.1,0.6-0.3,1.1-0.9,1.2c-0.7,0.1-1.4,0.2-2.1,0.4C22.8,28.8,22.7,28.8,22.6,28.8 M54.2,29.4
			c-0.1,0-0.2,0-0.3,0c-0.7-0.2-1.4-0.3-2.1-0.5c-0.6-0.1-0.9-0.7-0.8-1.3c0.1-0.6,0.7-0.9,1.3-0.8c0.7,0.1,1.5,0.3,2.2,0.5
			c0.6,0.1,0.9,0.7,0.8,1.3C55.1,29.1,54.6,29.4,54.2,29.4 M14.4,30.7c-0.4,0-0.8-0.3-1-0.7c-0.2-0.6,0.1-1.2,0.6-1.4
			c0.7-0.2,1.4-0.5,2.1-0.7c0.6-0.2,1.2,0.2,1.3,0.7c0.2,0.6-0.2,1.2-0.7,1.3c-0.7,0.2-1.4,0.4-2,0.6C14.7,30.7,14.5,30.7,14.4,30.7
			 M61.4,31.9c-0.2,0-0.3,0-0.5-0.1c-0.6-0.3-1.2-0.6-1.9-0.8c-0.5-0.2-0.8-0.8-0.6-1.4c0.2-0.5,0.8-0.8,1.4-0.6
			c0.7,0.3,1.4,0.6,2.1,0.9c0.5,0.3,0.8,0.9,0.5,1.4C62.1,31.6,61.7,31.9,61.4,31.9 M7.8,34.2c-0.3,0-0.6-0.1-0.8-0.4
			c-0.4-0.4-0.3-1.1,0.1-1.5c0.5-0.5,1.2-0.9,1.9-1.4c0.5-0.3,1.2-0.2,1.5,0.3c0.3,0.5,0.2,1.2-0.3,1.5c-0.6,0.4-1.2,0.8-1.6,1.2
			C8.3,34.2,8,34.2,7.8,34.2 M66.9,36.8c-0.4,0-0.8-0.3-1-0.7c-0.2-0.5-0.5-1-0.9-1.5c-0.4-0.4-0.4-1.1,0.1-1.5
			c0.4-0.4,1.1-0.4,1.5,0.1c0.6,0.7,1.1,1.4,1.4,2.2c0.2,0.6-0.1,1.2-0.6,1.4C67.2,36.7,67.1,36.8,66.9,36.8 M6.8,40.9
			c-0.3,0-0.6-0.1-0.8-0.4c-0.6-0.7-1-1.5-1.2-2.3C4.6,37.6,5,37,5.5,36.9c0.6-0.1,1.1,0.2,1.3,0.8c0.1,0.5,0.4,1,0.8,1.5
			c0.4,0.5,0.3,1.1-0.2,1.5C7.2,40.8,7,40.9,6.8,40.9 M63.7,43c-0.3,0-0.7-0.2-0.9-0.5c-0.3-0.5-0.2-1.1,0.3-1.5
			c0.6-0.4,1.1-0.8,1.5-1.2c0.4-0.4,1.1-0.4,1.5,0c0.4,0.4,0.4,1.1,0,1.5c-0.5,0.5-1.1,1-1.9,1.5C64.1,42.9,63.9,43,63.7,43
			 M49.4,47.7c-0.5,0-1-0.4-1-0.9c-0.1-0.6,0.3-1.1,0.9-1.2c0.7-0.1,1.4-0.2,2.1-0.4c0.6-0.1,1.1,0.3,1.2,0.8
			c0.1,0.6-0.3,1.1-0.8,1.2c-0.7,0.1-1.4,0.3-2.2,0.4C49.5,47.7,49.4,47.7,49.4,47.7 M28,49.7C28,49.7,27.9,49.7,28,49.7
			c-0.8-0.1-1.6-0.1-2.3-0.2c-0.6-0.1-1-0.6-0.9-1.2c0.1-0.6,0.6-1,1.2-0.9c0.7,0.1,1.4,0.2,2.1,0.2c0.6,0.1,1,0.6,1,1.2
			C29,49.3,28.5,49.7,28,49.7 M39.6,48.8c-0.6,0-1-0.4-1.1-1c0-0.6,0.4-1.1,1-1.1c0.7,0,1.4-0.1,2.1-0.2c0.6-0.1,1.1,0.4,1.1,1
			c0.1,0.6-0.4,1.1-1,1.1C41.1,48.7,40.4,48.8,39.6,48.8C39.6,48.8,39.6,48.8,39.6,48.8"/>
		<path class="st24" d="M4.6,24.3c0,0.6,0.5,1.1,1.1,1.1s1.1-0.5,1.1-1.1c0-0.6-0.5-1.1-1.1-1.1S4.6,23.7,4.6,24.3"/>
		<path class="st24" d="M29,59.3c0,0.6,0.5,1.1,1.1,1.1c0.6,0,1.1-0.5,1.1-1.1s-0.5-1.1-1.1-1.1C29.5,58.2,29,58.7,29,59.3"/>
		<path class="st24" d="M44.9,17.9c0,0.6,0.5,1.1,1.1,1.1s1.1-0.5,1.1-1.1c0-0.6-0.5-1.1-1.1-1.1S44.9,17.3,44.9,17.9"/>
		<polygon class="st25" points="60.8,14.8 64,11.6 60.8,8.4 57.6,11.6 		"/>
		<path class="st25" d="M60.8,8.4V6.3"/>
		<path class="st25" d="M57.6,11.6h-2.1"/>
		<path class="st25" d="M60.8,14.8v2.1"/>
		<path class="st25" d="M64,11.6h2.1"/>
		<path class="st26" d="M4.6,63.5c2.3,0,4.2-1.9,4.2-4.2c0,2.3,1.9,4.2,4.2,4.2c-2.3,0-4.2,1.9-4.2,4.2C8.9,65.4,7,63.5,4.6,63.5
			L4.6,63.5z"/>
	</g>
</g>
<g id="play">
</g>
</svg>
