<?xml version="1.0" encoding="utf-8"?>
<!-- Generator: Adobe Illustrator 21.0.2, SVG Export Plug-In . SVG Version: 6.00 Build 0)  -->
<svg version="1.1" xmlns="http://www.w3.org/2000/svg" xmlns:xlink="http://www.w3.org/1999/xlink" x="0px" y="0px"
	 viewBox="0 0 60 60" style="enable-background:new 0 0 60 60;" xml:space="preserve">
<style type="text/css">
	.st0{fill:url(#SVGID_1_);}
	.st1{fill:url(#SVGID_2_);}
	.st2{fill:url(#SVGID_3_);}
	.st3{fill:url(#SVGID_4_);}
	.st4{fill:#110628;}
	.st5{fill:url(#SVGID_5_);}
	.st6{fill:#FFFFFF;}
	.st7{fill:#FFFFFF;stroke:#FFFFFF;stroke-width:0.4478;stroke-miterlimit:10;}
	.st8{fill:#FFFFFF;stroke:#FFFFFF;stroke-width:0.2986;stroke-miterlimit:10;}
	.st9{fill:none;stroke:#FFFFFF;stroke-width:1.7913;stroke-linecap:round;stroke-miterlimit:10;stroke-dasharray:2.3884;}
	.st10{fill:#FFFFFF;stroke:#FFFFFF;stroke-width:0.5971;stroke-miterlimit:10;}
	.st11{fill:#FFFFFF;stroke:#FFFFFF;stroke-width:1.066;stroke-miterlimit:10;}
	.st12{fill:none;stroke:#FFFFFF;stroke-width:1.1942;}
	.st13{fill:none;stroke:#FFFFFF;stroke-width:1.7913;}
	.st14{fill:#FFFFFF;stroke:#FFFFFF;stroke-width:0.2986;}
	.st15{fill:#FFFFFF;stroke:#FFFFFF;stroke-width:0.5971;}
	.st16{fill:none;stroke:#FFFFFF;stroke-width:1.7913;stroke-linecap:round;}
	.st17{fill:none;stroke:#FFFFFF;stroke-width:1.7913;stroke-linecap:round;stroke-linejoin:round;}
	.st18{fill:none;stroke:#FFFFFF;stroke-width:3;stroke-linecap:round;stroke-linejoin:round;stroke-miterlimit:10;}
	.st19{fill:none;stroke:#FFFFFF;stroke-width:4;stroke-linecap:round;stroke-linejoin:round;stroke-miterlimit:10;}
	.st20{fill:#FFFFFF;stroke:#FFFFFF;stroke-width:0.75;stroke-miterlimit:10;}
	.st21{fill:#FFFFFF;stroke:#FFFFFF;stroke-width:1.5819;stroke-miterlimit:10;}
	.st22{opacity:0.5;fill:#FFFFFF;}
	.st23{fill:url(#SVGID_6_);}
	.st24{fill:url(#SVGID_7_);}
	.st25{fill:url(#SVGID_8_);}
	.st26{fill:url(#SVGID_9_);}
	.st27{fill:url(#SVGID_10_);}
	.st28{fill:url(#SVGID_11_);}
	.st29{fill:url(#SVGID_12_);}
	.st30{fill:url(#SVGID_13_);}
	.st31{fill:url(#SVGID_14_);}
	.st32{fill:url(#SVGID_15_);}
	.st33{fill:url(#SVGID_16_);}
	.st34{fill:url(#SVGID_17_);}
	.st35{fill:url(#SVGID_18_);}
	.st36{fill:url(#SVGID_19_);}
	.st37{fill:url(#SVGID_20_);}
	.st38{fill:url(#SVGID_21_);}
	.st39{fill:url(#SVGID_22_);}
	.st40{fill:url(#SVGID_23_);}
	.st41{fill:url(#SVGID_24_);}
	.st42{fill:#FEFDFF;}
</style>
<g id="fond">
</g>
<g id="pointillé">
</g>
<g id="invaders">
	<g>
		<path class="st11" d="M49.5,20.7c-0.1-0.3-0.3-0.5-0.4-0.8C45.3,13.1,38.2,8.9,30.5,8.9c-2.6,0-5.1,0.5-7.4,1.3l-0.1,0l0,0
			c-0.3,0.1-0.5,0.2-0.8,0.3c-4.2,1.8-7.8,5-10,8.9c-1.8,3.2-2.8,6.8-2.8,10.5c0,3.9,1.1,7.6,3,10.9l0.1,0.1c0.5,0.7,1,1.5,1.5,2.2
			c0.9,1.1,1.9,2.1,3,3c3.8,3.1,8.6,4.9,13.5,4.9c5.9,0,11.3-2.4,15.4-6.6c0.8-0.8,1.5-1.7,2.1-2.6l0-0.1c2.4-3.5,3.6-7.6,3.6-11.8
			C51.6,26.8,50.9,23.6,49.5,20.7z M12.6,38c0.1,0.4,0.2,0.8,0.2,1.2c-1.5-2.8-2.3-6-2.3-9.2c0-3.5,0.9-6.9,2.6-9.9
			c0,0,0-0.1,0.1-0.1c1.7-0.4,2.9-1.1,4.9-2.2c1.1-0.6,2.4-1.4,4.2-2.3c2-1,4.1-1.6,6-1.6c2.4,0,4.5,0.8,6,2.3
			c1.7,1.7,2.6,4.3,2.5,7.4c0,3.3-1,3.9-2.7,3.9c0,0,0,0,0,0c-0.7,0-1.6-0.1-2.6-0.3c-1.3-0.2-2.8-0.4-4.5-0.4c-3.2,0-6,0.8-8.8,2.6
			C11.7,33.6,12.2,36,12.6,38z M13.5,40.5l-0.1-0.1c0,0-0.1-0.1-0.1-0.1c0.2-0.8,0-1.6-0.1-2.3c-0.4-2-0.8-4,5.3-7.9
			c2.6-1.7,5.4-2.5,8.4-2.5c1.6,0,3.1,0.2,4.4,0.4c1,0.2,1.9,0.3,2.7,0.3c0,0,0,0,0,0c2.3,0,3.3-1.3,3.3-4.5c0-3.3-0.9-6-2.7-7.8
			c-1.6-1.6-3.8-2.5-6.4-2.5c-2,0-4.2,0.6-6.3,1.6c-1.8,0.9-3.1,1.7-4.2,2.3c-1.7,1-2.8,1.6-4.2,2c2.1-3.3,5.3-6,8.9-7.6
			c0.3-0.1,0.6-0.2,0.8-0.3l0.1,0c0.3-0.1,0.6-0.2,1-0.3c1.4,0,3.9,0,8.2,0.5c7.4,0.8,8.1,4.5,9,8.8c0.3,1.8,0.7,3.6,1.6,5.4
			c1.4,2.8,1.6,4.9,0.6,5.9c-1,1.1-3.1,1.1-6,0c-6.3-2.3-17.6,0.7-21.4,4.5c-2.2,2.3-2,3.5-1.9,4.6c0.1,0.5,0.1,0.9-0.1,1.4
			C14.2,41.6,13.8,41,13.5,40.5z M15,42.6c0.5-0.8,0.4-1.4,0.3-2c-0.2-1-0.3-2,1.7-4c3.7-3.7,14.6-6.6,20.7-4.4
			c3.2,1.2,5.5,1.1,6.7-0.2c1.1-1.3,1-3.6-0.5-6.6c-0.8-1.7-1.2-3.5-1.5-5.3c-0.9-4.4-1.7-8.5-9.5-9.3c-2.4-0.2-4.4-0.4-5.9-0.5
			c1.2-0.2,2.4-0.3,3.6-0.3c7.3,0,14,4,17.5,10.4c0.1,0.2,0.2,0.4,0.3,0.7c-0.3,0.3-0.7,0.7-1.3,1.1c-1.9,1.5-1.2,3.7-0.5,5.9
			c0.7,2,1.4,4.3,0.4,6.5c-1.1,2.5-2.5,2.2-5.6,1.5c-2.4-0.6-5.6-1.3-10.1-1.1c-10.2,0.5-11.9,4.4-12.1,8.6
			c-0.1,1.7-0.4,2.2-0.6,2.4c-0.3-0.2-0.5-0.4-0.8-0.6C16.7,44.5,15.8,43.6,15,42.6z M45,43.7c-3.8,4-9,6.3-14.5,6.3
			c-2.3,0-4.5-0.4-6.7-1.2l0,0c0,0-1.7-3.4-0.5-5.9c0.7-1.3,2.1-2.2,4.2-2.6c7.6-1.3,8.4-1.1,13.3,0.5l0.5,0.1c2.6,0.8,4.1,1,5,1.1
			C45.9,42.6,45.5,43.2,45,43.7z M47,41.1L47,41.1c-0.1,0.1-0.2,0.2-0.2,0.3c-0.6,0.1-2.1,0-5.3-1L41,40.2
			c-5.1-1.6-5.9-1.8-13.6-0.5c-2.3,0.4-3.9,1.4-4.7,2.9c-1.1,2.1-0.2,4.7,0.3,5.9c-1.4-0.6-2.8-1.3-4-2.2c0.4-0.4,0.6-1.3,0.7-2.7
			c0.2-2.6,0.5-7.5,11.6-8c4.5-0.2,7.7,0.5,10,1.1c3.1,0.7,5,1.2,6.3-1.8c1.1-2.4,0.3-4.8-0.4-6.9c-0.7-2.2-1.3-4,0.3-5.2
			c0.5-0.4,0.9-0.7,1.2-1c1.2,2.6,1.8,5.4,1.8,8.2C50.4,34,49.2,37.8,47,41.1z"/>
		<path class="st11" d="M34.2,42c-1.2,0-4.3,0.1-5.6,1.3c-0.3,0.3-0.6,0.5-0.8,0.7c-1.6,1.4-2.3,2-1.2,3.5c0.5,0.7,1.1,1,1.8,1l0,0
			c0.5,0,1-0.1,1.8-0.3c0.6-0.1,1.2-0.3,2-0.4c2.7-0.4,8.1-2,8.7-3.6c0.1-0.3,0.1-0.6-0.2-0.9C39.9,42.5,36.8,42,34.2,42z
			 M40.3,44.1c-0.4,1.1-5,2.7-8.2,3.2c-0.8,0.1-1.5,0.3-2,0.4c-0.7,0.1-1.2,0.3-1.6,0.3l0,0c-0.5,0-0.9-0.1-1.3-0.8
			c-0.8-1.1-0.5-1.3,1.1-2.7c0.2-0.2,0.5-0.5,0.8-0.7c0.8-0.7,2.8-1.2,5.2-1.2c2.7,0,5.4,0.5,6,1.2C40.3,43.9,40.3,44,40.3,44.1z"/>
		<path class="st11" d="M32.1,44.3c-0.2,0-0.5,0-0.7,0.1c-0.7,0.1-1.9,1-1.9,1.6c0,0.2,0.2,0.6,0.9,0.6c0.1,0,0.2,0,0.2,0l0,0
			c1.5,0,2.6-0.3,3.1-1c0.2-0.3,0.1-0.5,0.1-0.6C33.6,44.3,32.3,44.3,32.1,44.3z M33.4,45.2c-0.4,0.5-1.5,0.8-2.9,0.8
			c-0.2,0-0.3,0-0.3-0.1c0.1-0.2,0.8-0.8,1.4-1c0.2,0,0.4,0,0.6,0C32.8,44.9,33.3,45,33.4,45.2C33.4,45.2,33.4,45.2,33.4,45.2z"/>
		<path class="st11" d="M19.2,27.1c1.5-0.8,3.1-1.6,4.5-1.8l0.2,0c3.6-0.5,8-1,8.7-3.4c0.7-2.5-0.2-3.3-4-5.2
			c-0.7-0.3-1.5-0.5-2.4-0.5c-4,0-9,3.4-10,4.3c-0.7,0.6-0.7,0.6-0.8,0.7c-0.1,0.1-0.2,0.2-1.2,1c-1.1,1-1.7,2.4-1.6,3.7
			c0.1,1.1,0.6,2,1.5,2.5c0.3,0.2,0.6,0.3,1,0.3C16.3,28.6,17.7,27.9,19.2,27.1z M13.2,25.8c-0.1-1.2,0.4-2.4,1.4-3.2
			c1-0.8,1.1-1,1.2-1.1c0.1-0.1,0.1-0.1,0.8-0.6c1.3-1.1,6.1-4.1,9.6-4.1c0.8,0,1.5,0.2,2.1,0.5c3.8,2,4.3,2.5,3.7,4.5
			c-0.6,2-5,2.6-8.2,3l-0.2,0c-1.5,0.2-3.2,1-4.7,1.8c-1.4,0.7-2.8,1.4-3.8,1.4c-0.3,0-0.5-0.1-0.7-0.2
			C13.7,27.4,13.3,26.7,13.2,25.8z"/>
		<path class="st11" d="M20.8,24.1c0.5,0,1.1-0.1,1.7-0.3c0.4-0.1,0.8-0.2,1.3-0.2c2.2-0.3,3.3-0.8,3.9-2.2c0.1-0.3,0.2-0.8,0-1.1
			c-0.3-0.4-0.8-0.4-1.7-0.4c-0.3,0-0.7,0-1.1,0l-1,0c-2.3,0-3.5,0.1-4.1,2.4c-0.2,0.7-0.1,1.1,0.1,1.4C20,24,20.3,24.1,20.8,24.1z
			 M20.2,22.5c0.5-1.9,1.2-1.9,3.5-1.9l1,0c0.4,0,0.8,0,1.1,0c0.3,0,1.1,0,1.2,0.2c0,0,0.1,0.2-0.1,0.5c-0.4,1.1-1.2,1.5-3.4,1.8
			c-0.4,0.1-0.9,0.2-1.3,0.2c-0.6,0.1-1.2,0.2-1.6,0.2c-0.3,0-0.4-0.1-0.5-0.2C20.2,23.3,20.1,23,20.2,22.5z"/>
	</g>
</g>
<g id="play">
</g>
</svg>
