<?xml version="1.0" encoding="utf-8"?>
<!-- Generator: Adobe Illustrator 21.0.2, SVG Export Plug-In . SVG Version: 6.00 Build 0)  -->
<svg version="1.1" xmlns="http://www.w3.org/2000/svg" xmlns:xlink="http://www.w3.org/1999/xlink" x="0px" y="0px"
	 viewBox="0 0 60 60" style="enable-background:new 0 0 60 60;" xml:space="preserve">
<style type="text/css">
	.st0{fill:url(#SVGID_1_);}
	.st1{fill:url(#SVGID_2_);}
	.st2{fill:url(#SVGID_3_);}
	.st3{fill:url(#SVGID_4_);}
	.st4{fill:#110628;}
	.st5{fill:url(#SVGID_5_);}
	.st6{fill:#FFFFFF;}
	.st7{fill:#FFFFFF;stroke:#FFFFFF;stroke-width:0.4478;stroke-miterlimit:10;}
	.st8{fill:#FFFFFF;stroke:#FFFFFF;stroke-width:0.2986;stroke-miterlimit:10;}
	.st9{fill:none;stroke:#FFFFFF;stroke-width:1.7913;stroke-linecap:round;stroke-miterlimit:10;stroke-dasharray:2.3884;}
	.st10{fill:#FFFFFF;stroke:#FFFFFF;stroke-width:0.5971;stroke-miterlimit:10;}
	.st11{fill:#FFFFFF;stroke:#FFFFFF;stroke-width:1.066;stroke-miterlimit:10;}
	.st12{fill:none;stroke:#FFFFFF;stroke-width:1.1942;}
	.st13{fill:none;stroke:#FFFFFF;stroke-width:1.7913;}
	.st14{fill:#FFFFFF;stroke:#FFFFFF;stroke-width:0.2986;}
	.st15{fill:#FFFFFF;stroke:#FFFFFF;stroke-width:0.5971;}
	.st16{fill:none;stroke:#FFFFFF;stroke-width:1.7913;stroke-linecap:round;}
	.st17{fill:none;stroke:#FFFFFF;stroke-width:1.7913;stroke-linecap:round;stroke-linejoin:round;}
	.st18{fill:none;stroke:#FFFFFF;stroke-width:3;stroke-linecap:round;stroke-linejoin:round;stroke-miterlimit:10;}
	.st19{fill:none;stroke:#FFFFFF;stroke-width:4;stroke-linecap:round;stroke-linejoin:round;stroke-miterlimit:10;}
	.st20{fill:#FFFFFF;stroke:#FFFFFF;stroke-width:0.75;stroke-miterlimit:10;}
	.st21{fill:none;stroke:#FFFFFF;stroke-width:0.9677;}
	.st22{fill:none;stroke:#FFFFFF;stroke-width:1.4516;}
	.st23{fill:#FFFFFF;stroke:#FFFFFF;stroke-width:0.2419;}
	.st24{fill:#FFFFFF;stroke:#FFFFFF;stroke-width:0.4839;}
	.st25{fill:none;stroke:#FFFFFF;stroke-width:1.4516;stroke-linecap:round;}
	.st26{fill:none;stroke:#FFFFFF;stroke-width:1.4516;stroke-linecap:round;stroke-linejoin:round;}
	.st27{fill:#FFFFFF;stroke:#FFFFFF;stroke-width:1.5819;stroke-miterlimit:10;}
	.st28{opacity:0.5;fill:#FFFFFF;}
	.st29{fill:url(#SVGID_6_);}
	.st30{fill:url(#SVGID_7_);}
	.st31{fill:url(#SVGID_8_);}
	.st32{fill:url(#SVGID_9_);}
	.st33{fill:url(#SVGID_10_);}
	.st34{fill:url(#SVGID_11_);}
	.st35{fill:url(#SVGID_12_);}
	.st36{fill:url(#SVGID_13_);}
	.st37{fill:url(#SVGID_14_);}
	.st38{fill:url(#SVGID_15_);}
	.st39{fill:url(#SVGID_16_);}
	.st40{fill:url(#SVGID_17_);}
	.st41{fill:url(#SVGID_18_);}
	.st42{fill:url(#SVGID_19_);}
	.st43{fill:url(#SVGID_20_);}
	.st44{fill:url(#SVGID_21_);}
	.st45{fill:url(#SVGID_22_);}
	.st46{fill:url(#SVGID_23_);}
	.st47{fill:url(#SVGID_24_);}
	.st48{fill:#FEFDFF;}
</style>
<g id="fond">
</g>
<g id="pointillé">
</g>
<g id="invaders">
	<path class="st20" d="M53.8,44.9c-0.2-2.8-3-5.9-4.1-7.1c0.7-2.1,1.2-4.4,1.2-6.7c0-11.5-9.4-20.9-20.8-20.9
		c-5.6,0-10.7,2.2-14.4,5.8c-4.3-1.5-7.5-1.2-7.7-1.2c-1.9,0.1-2.8,0.9-3.1,1.7c-1.1,2,0.6,5,0.7,5.3c1,1.8,2.5,3.5,4,5.2
		c-0.3,1.3-0.4,2.6-0.4,4.1c0,11.5,9.4,20.8,20.8,20.8c4.8,0,9.2-1.7,12.7-4.4c3.2,1,5,1.1,5.1,1.2c0.4,0.1,0.8,0.1,1.1,0.1
		c1.8,0,3.2-0.4,4-1.4C54,46.2,53.9,44.9,53.8,44.9z M42.4,45.2c-4.1-1.3-10.2-4-18-9.1c-0.1-0.1-7.1-4.4-12.5-9.7
		c0.6-2.3,1.6-4.5,3-6.3c2.7,4.1,13.1,17.8,32.6,18C46.3,40.8,44.6,43.2,42.4,45.2z M22.8,13.7c2.4,2.9,12,13.5,25.8,14.6
		c0.1,0.9,0.2,1.8,0.2,2.7c0,2.1-0.4,4.1-1,6C28,36.9,17.7,22.6,15.5,19.1C17.5,16.8,19.9,14.9,22.8,13.7z M27.8,12.4
		c2.3,2.3,10.5,9.7,19.6,11.3c0.5,1.2,0.8,2.3,1.1,3.5c-13-1.2-22-10.8-24.6-13.9C25.1,12.9,26.4,12.5,27.8,12.4z M46.8,22.6
		c-7.7-1.7-14.8-7.7-17.6-10.3c0.3,0,0.6-0.1,0.9-0.1C37.4,12.2,43.7,16.4,46.8,22.6z M7.4,20.7c-0.4-0.7-1.2-2.5-0.7-3.3
		c0.2-0.3,0.7-0.6,1.5-0.6c0.1,0,2.5-0.2,5.9,0.8c-1.7,2-3,4.4-3.9,6.9C9.1,23.3,8.1,22.1,7.4,20.7z M11.6,34.5
		c3.1,4.8,10.1,13.3,22.2,14.9c-1.2,0.2-2.5,0.4-3.7,0.4C20.9,49.8,13.3,43.2,11.6,34.5z M36.5,48.6c-15.3-0.8-23-12.8-25.2-16.6
		c0-0.3-0.1-0.7-0.1-1c0-0.8,0.1-1.5,0.2-2.3c5.3,5,11.5,8.8,11.8,9c7.2,4.7,12.9,7.4,17.1,8.9C39.2,47.5,37.9,48.1,36.5,48.6z
		 M51.5,45.9c-0.3,0.3-1.2,0.8-3.4,0.7c-0.1,0-1.3-0.1-3.4-0.7c1.8-1.7,3.2-3.7,4.2-6c1.2,1.4,2.8,3.5,2.9,5.2
		C51.8,45.1,51.8,45.5,51.5,45.9z"/>
</g>
<g id="play">
</g>
</svg>
