<?xml version="1.0" encoding="utf-8"?>
<!-- Generator: Adobe Illustrator 21.0.2, SVG Export Plug-In . SVG Version: 6.00 Build 0)  -->
<svg version="1.1" xmlns="http://www.w3.org/2000/svg" xmlns:xlink="http://www.w3.org/1999/xlink" x="0px" y="0px"
	 viewBox="0 0 73 74" style="enable-background:new 0 0 73 74;" xml:space="preserve">
<style type="text/css">
	.st0{fill:url(#SVGID_1_);}
	.st1{fill:url(#SVGID_2_);}
	.st2{fill:url(#SVGID_3_);}
	.st3{fill:url(#SVGID_4_);}
	.st4{fill:#110628;}
	.st5{fill:url(#SVGID_5_);}
	.st6{fill:#FFFFFF;}
	.st7{fill:#FFFFFF;stroke:#FFFFFF;stroke-width:0.4478;stroke-miterlimit:10;}
	.st8{fill:#FFFFFF;stroke:#FFFFFF;stroke-width:0.2986;stroke-miterlimit:10;}
	.st9{fill:none;stroke:#FFFFFF;stroke-width:1.7913;stroke-linecap:round;stroke-miterlimit:10;stroke-dasharray:2.3884;}
	.st10{fill:#FFFFFF;stroke:#FFFFFF;stroke-width:0.5971;stroke-miterlimit:10;}
	.st11{fill:#FFFFFF;stroke:#FFFFFF;stroke-width:1.066;stroke-miterlimit:10;}
	.st12{fill:none;stroke:#FFFFFF;stroke-width:1.1942;}
	.st13{fill:none;stroke:#FFFFFF;stroke-width:1.7913;}
	.st14{fill:#FFFFFF;stroke:#FFFFFF;stroke-width:0.2986;}
	.st15{fill:#FFFFFF;stroke:#FFFFFF;stroke-width:0.5971;}
	.st16{fill:none;stroke:#FFFFFF;stroke-width:1.7913;stroke-linecap:round;}
	.st17{fill:none;stroke:#FFFFFF;stroke-width:1.7913;stroke-linecap:round;stroke-linejoin:round;}
	.st18{fill:none;stroke:#FFFFFF;stroke-width:3;stroke-linecap:round;stroke-linejoin:round;stroke-miterlimit:10;}
	.st19{fill:none;stroke:#FFFFFF;stroke-width:4;stroke-linecap:round;stroke-linejoin:round;stroke-miterlimit:10;}
	.st20{fill:#FFFFFF;stroke:#FFFFFF;stroke-width:0.75;stroke-miterlimit:10;}
	.st21{fill:#FFFFFF;stroke:#FFFFFF;stroke-width:1.5819;stroke-miterlimit:10;}
	.st22{opacity:0.5;fill:#FFFFFF;}
	.st23{fill:url(#SVGID_6_);}
	.st24{fill:url(#SVGID_7_);}
	.st25{fill:url(#SVGID_8_);}
	.st26{fill:url(#SVGID_9_);}
	.st27{fill:url(#SVGID_10_);}
	.st28{fill:url(#SVGID_11_);}
	.st29{fill:url(#SVGID_12_);}
	.st30{fill:url(#SVGID_13_);}
	.st31{fill:url(#SVGID_14_);}
	.st32{fill:url(#SVGID_15_);}
	.st33{fill:url(#SVGID_16_);}
	.st34{fill:url(#SVGID_17_);}
	.st35{fill:url(#SVGID_18_);}
	.st36{fill:url(#SVGID_19_);}
	.st37{fill:url(#SVGID_20_);}
	.st38{fill:url(#SVGID_21_);}
	.st39{fill:url(#SVGID_22_);}
	.st40{fill:url(#SVGID_23_);}
	.st41{fill:url(#SVGID_24_);}
	.st42{fill:#FEFDFF;}
</style>
<g id="fond">
</g>
<g id="pointillé">
</g>
<g id="invaders">
	<g>
		<path class="st10" d="M66.2,29.8c0-2.7-2.2-4.8-4.8-4.8c-2.7,0-4.8,2.2-4.8,4.8s2.2,4.8,4.8,4.8C64,34.6,66.2,32.4,66.2,29.8z
			 M59.1,29.8c0-1.3,1-2.3,2.3-2.3c1.3,0,2.3,1,2.3,2.3s-1,2.3-2.3,2.3C60.1,32,59.1,31,59.1,29.8z"/>
		<path class="st10" d="M34.2,18.1c-10.7,0-19.3,8.7-19.3,19.3c0,2.1,0.4,4.1,1,6.1c-3.1,1.1-5.3,4-5.3,7.4c0,4.3,3.5,7.8,7.8,7.8
			c3,0,5.6-1.7,6.9-4.1c2.7,1.4,5.8,2.2,8.9,2.2c10.7,0,19.3-8.7,19.3-19.3S44.8,18.1,34.2,18.1z M46.9,26.2
			c1.9,2.2,3.3,4.8,3.9,7.7c-2.1-1.3-3.6-3.5-3.9-6C46.8,27.4,46.8,26.8,46.9,26.2z M25.5,22.9c0,0.4,0.1,0.7,0.2,1.1
			c0.2,1,0.5,1.9,0.9,2.8c0.7,1.8,1.3,3.4,0.4,5.2c-1.1,2.2-2.6,2.4-5.3,1.8l-0.4-0.1c-0.9-0.2-2.2-0.4-3.4-0.7
			C19,28.8,21.8,25.1,25.5,22.9z M17.5,34.7c1.3,0.4,2.6,0.6,3.5,0.7l0.4,0.1c0.8,0.2,1.6,0.3,2.4,0.3c1.8,0,3.5-0.6,4.6-3
			c1.2-2.4,0.4-4.5-0.4-6.5c-0.3-0.9-0.6-1.7-0.8-2.6c-0.1-0.6-0.2-1.1-0.2-1.6c1.7-0.8,3.5-1.3,5.5-1.5c-0.4,2-0.1,4.3,1.1,7
			c2,4.6,3.5,9.1,0.4,12.8c-2.6,3.2-6.6,2.3-10.8,1.3c-1.7-0.4-3.5-0.8-5.1-0.9c-0.2,0-0.3,0-0.5,0c-0.2-1.1-0.3-2.2-0.3-3.3
			C17.3,36.5,17.3,35.6,17.5,34.7z M18.4,56.2c-2.9,0-5.3-2.4-5.3-5.3c0-2.9,2.4-5.3,5.3-5.3c2.9,0,5.3,2.4,5.3,5.3
			S21.3,56.2,18.4,56.2z M34.2,54.3c-2.8,0-5.6-0.7-8.1-2.1c0.1-0.4,0.1-0.9,0.1-1.4c0-0.9-0.2-1.8-0.4-2.6c0.8,0.1,1.6,0.3,2.5,0.5
			c1.6,0.5,3,1.3,4.5,2.1c0.7,0.4,1.4,0.8,2.2,1.2c1.3,0.6,2.6,1.1,4,1.5C37.4,54.1,35.8,54.3,34.2,54.3z M41.6,52.6
			c-2.1-0.3-4.1-0.9-6-1.9c-0.8-0.4-1.5-0.8-2.2-1.2c-1.5-0.9-3-1.7-4.8-2.2c-1.3-0.4-2.5-0.6-3.8-0.7c-1.4-2.1-3.8-3.6-6.6-3.6
			c0,0-0.1,0-0.1,0c-0.1-0.3-0.2-0.5-0.3-0.8c0,0,0,0,0,0c1.5,0.1,3.1,0.5,4.8,0.9c2,0.5,4.1,1,6.2,1c2.3,0,4.5-0.7,6.3-2.8
			c3.7-4.4,1.9-9.6-0.1-14.5c-1.1-2.6-1.4-4.6-0.9-6.4c2.6,0,5.1,0.6,7.3,1.7c-0.7,1.7-1.1,3.6-1.1,5.4c0,6.3,4.4,11.7,10.4,13.2
			C49.7,46,46.3,50.3,41.6,52.6z M42,27.6c0-1.6,0.3-3.2,1-4.7c0.9,0.6,1.8,1.2,2.5,1.9c-0.3,1.1-0.3,2.2-0.2,3.4
			c0.4,3.4,2.6,6.4,5.7,7.8c0,0.5,0.1,1,0.1,1.5c0,0.6,0,1.2-0.1,1.8C45.8,37.9,42,33.1,42,27.6z"/>
		<path class="st10" d="M39.8,43.5c0,1.7,1.4,3.1,3.1,3.1c1.7,0,3.1-1.4,3.1-3.1c0-1.7-1.4-3.1-3.1-3.1
			C41.2,40.4,39.8,41.8,39.8,43.5z M44.4,43.5c0,0.8-0.7,1.5-1.5,1.5c-0.8,0-1.5-0.7-1.5-1.5s0.7-1.5,1.5-1.5
			C43.8,42,44.4,42.7,44.4,43.5z"/>
		<circle class="st10" cx="55.5" cy="19.4" r="1.1"/>
		<circle class="st10" cx="10.6" cy="42.6" r="1.1"/>
		<circle class="st10" cx="54.4" cy="62.1" r="1.1"/>
		<circle class="st10" cx="14.6" cy="13.1" r="1.1"/>
		<circle class="st10" cx="66.2" cy="47.7" r="1.1"/>
		<circle class="st10" cx="22.3" cy="11.6" r="0.4"/>
		<circle class="st10" cx="8.9" cy="34.6" r="0.4"/>
		<circle class="st10" cx="8.4" cy="22.3" r="0.4"/>
		<circle class="st10" cx="35.7" cy="13.1" r="0.4"/>
		<circle class="st10" cx="51.6" cy="9.8" r="0.4"/>
		<circle class="st10" cx="66.2" cy="20" r="0.4"/>
		<circle class="st10" cx="55.5" cy="50.5" r="0.4"/>
		<circle class="st10" cx="64.3" cy="58.3" r="0.4"/>
		<circle class="st10" cx="61.3" cy="42.6" r="0.4"/>
		<circle class="st10" cx="40.3" cy="61.4" r="0.4"/>
		<circle class="st10" cx="15.7" cy="66.3" r="0.4"/>
		<circle class="st10" cx="27.3" cy="61" r="0.4"/>
		<circle class="st10" cx="8" cy="60.5" r="0.4"/>
	</g>
</g>
<g id="play">
</g>
</svg>
